<svg xmlns="http://www.w3.org/2000/svg" xmlns:xlink="http://www.w3.org/1999/xlink" xmlns:lucid="lucid" width="1760" height="1360"><g transform="translate(1696 0)" lucid:page-tab-id="0_0"><path d="M-1620 658.1h177.34v108.57H-1620z" fill="none"/><use xlink:href="#a" transform="matrix(1,0,0,1,-1615,663.0952380952381) translate(35.99218749999999 44.16145833333333)"/><use xlink:href="#b" transform="matrix(1,0,0,1,-1615,663.0952380952381) translate(27.990885416666657 70.828125)"/><use xlink:href="#c" transform="matrix(1,0,0,1,-1615,663.0952380952381) translate(124.00651041666667 70.828125)"/><path d="M-1238.72 658.1h177.34v108.57h-177.34z" fill="none"/><use xlink:href="#a" transform="matrix(1,0,0,1,-1233.7192118226599,663.0952380952381) translate(35.99218749999999 44.16145833333333)"/><use xlink:href="#b" transform="matrix(1,0,0,1,-1233.7192118226599,663.0952380952381) translate(27.990885416666657 70.828125)"/><use xlink:href="#d" transform="matrix(1,0,0,1,-1233.7192118226599,663.0952380952381) translate(124.00651041666667 70.828125)"/><path d="M-1238.72 911.43h177.34V1020h-177.34z" fill="none"/><use xlink:href="#e" transform="matrix(1,0,0,1,-1233.7192118226599,916.4285714285713) translate(27.990885416666657 57.494791666666664)"/><use xlink:href="#d" transform="matrix(1,0,0,1,-1233.7192118226599,916.4285714285713) translate(124.00651041666667 57.494791666666664)"/><path d="M-1238.72 440.95h177.34v108.57h-177.34z" fill="none"/><use xlink:href="#f" transform="matrix(1,0,0,1,-1233.7192118226599,445.9523809523809) translate(19.98958333333333 57.494791666666664)"/><use xlink:href="#d" transform="matrix(1,0,0,1,-1233.7192118226599,445.9523809523809) translate(132.0078125 57.494791666666664)"/><path d="M-1442.66 712.38h203.94" stroke="#000" stroke-width="2" fill="none"/><path/><path d="M-1238.72 712.38l-14.27 4.64v-9.27z"/><path d="M-1238.72 711.33v2.1l-15.27 4.96v-12.03zm-13.27 4.3l10.04-3.25-10.03-3.26z"/><path d="M-1150.05 911.43V766.67" stroke="#000" stroke-width="2" fill="none"/><path/><path d="M-1145.4 780.93h-9.28l4.63-14.26z"/><path d="M-1144.04 781.93h-12.02l4.96-15.26h2.1zm-9.27-2h6.5l-3.25-10.03z"/><path d="M-1150.05 658.1V549.52" stroke="#000" stroke-width="2" fill="none"/><path/><path d="M-1145.4 563.8h-9.28l4.63-14.28z"/><path d="M-1144.04 564.8h-12.02l4.96-15.28h2.1zm-9.27-2h6.5l-3.25-10.04z"/><path d="M-1041.43 440.95h159.6v108.57h-159.6z" fill="none"/><use xlink:href="#g" transform="matrix(1,0,0,1,-1036.4285714285713,445.9523809523809) translate(10.989583333333329 57.494791666666664)"/><use xlink:href="#d" transform="matrix(1,0,0,1,-1036.4285714285713,445.9523809523809) translate(123.00781250000001 57.494791666666664)"/><path d="M-1229.96 260h159.6v108.57h-159.6z" fill="none"/><use xlink:href="#h" transform="matrix(1,0,0,1,-1224.9630541871923,264.99999999999994) translate(26.992187499999993 57.494791666666664)"/><use xlink:href="#d" transform="matrix(1,0,0,1,-1224.9630541871923,264.99999999999994) translate(107.00520833333334 57.494791666666664)"/><path d="M-1150.16 440.95v-72.38" stroke="#000" stroke-width="2" fill="none"/><path/><path d="M-1145.52 382.84h-9.28l4.64-14.27z"/><path d="M-1144.15 383.84h-12.02l4.96-15.27h2.1zm-9.27-2h6.52l-3.26-10.03z"/><path d="M-961.63 440.95V314.3h-108.73" stroke="#000" stroke-width="2" fill="none"/><path/><path d="M-1056.1 318.92l-14.26-4.63 14.27-4.65z"/><path d="M-1055.1 320.3l-15.26-4.96v-2.1l15.27-4.97zm-12.02-6l10.03 3.24v-6.5z"/><path d="M-857.88 658.1h177.34v108.57h-177.34z" fill="none"/><use xlink:href="#a" transform="matrix(1,0,0,1,-852.8817733990147,663.0952380952381) translate(35.99218749999999 44.16145833333333)"/><use xlink:href="#b" transform="matrix(1,0,0,1,-852.8817733990147,663.0952380952381) translate(27.990885416666657 70.828125)"/><use xlink:href="#i" transform="matrix(1,0,0,1,-852.8817733990147,663.0952380952381) translate(124.00651041666667 70.828125)"/><path d="M-476.6 658.1h177.34v108.57H-476.6z" fill="none"/><use xlink:href="#a" transform="matrix(1,0,0,1,-471.6009852216749,663.0952380952381) translate(35.99218749999999 44.16145833333333)"/><use xlink:href="#b" transform="matrix(1,0,0,1,-471.6009852216749,663.0952380952381) translate(27.990885416666657 70.828125)"/><use xlink:href="#j" transform="matrix(1,0,0,1,-471.6009852216749,663.0952380952381) translate(124.00651041666667 70.828125)"/><path d="M-476.6 911.43h177.34V1020H-476.6z" fill="none"/><use xlink:href="#e" transform="matrix(1,0,0,1,-471.6009852216749,916.4285714285713) translate(27.990885416666657 57.494791666666664)"/><use xlink:href="#j" transform="matrix(1,0,0,1,-471.6009852216749,916.4285714285713) translate(124.00651041666667 57.494791666666664)"/><path d="M-476.6 440.95h177.34v108.57H-476.6z" fill="none"/><use xlink:href="#f" transform="matrix(1,0,0,1,-471.6009852216749,445.95238095238096) translate(19.98958333333333 57.494791666666664)"/><use xlink:href="#j" transform="matrix(1,0,0,1,-471.6009852216749,445.95238095238096) translate(132.0078125 57.494791666666664)"/><path d="M-680.54 712.38h203.94" stroke="#000" stroke-width="2" fill="none"/><path/><path d="M-476.6 712.38l-14.27 4.64v-9.27z"/><path d="M-476.6 711.33v2.1l-15.27 4.96v-12.03zm-13.27 4.3l10.03-3.25-10.03-3.26z"/><path d="M-387.93 911.43V766.67" stroke="#000" stroke-width="2" fill="none"/><path/><path d="M-383.3 780.93h-9.27l4.64-14.26z"/><path d="M-381.92 781.93h-12.02l4.96-15.26h2.1zm-9.27-2h6.53l-3.26-10.03z"/><path d="M-387.93 658.1V549.52" stroke="#000" stroke-width="2" fill="none"/><path/><path d="M-383.3 563.8h-9.27l4.64-14.28z"/><path d="M-381.92 564.8h-12.02l4.96-15.28h2.1zm-9.27-2h6.53l-3.26-10.04z"/><path d="M-279.3 440.95h159.6v108.57h-159.6z" fill="none"/><use xlink:href="#g" transform="matrix(1,0,0,1,-274.31034482758645,445.9523809523809) translate(10.989583333333329 57.494791666666664)"/><use xlink:href="#j" transform="matrix(1,0,0,1,-274.31034482758645,445.9523809523809) translate(123.00781250000001 57.494791666666664)"/><path d="M-467.84 260h159.6v108.57h-159.6z" fill="none"/><use xlink:href="#k" transform="matrix(1,0,0,1,-462.84482758620686,264.99999999999994) translate(35.74074074074073 54.833333333333336)"/><use xlink:href="#l" transform="matrix(1,0,0,1,-462.84482758620686,264.99999999999994) translate(99.44444444444444 54.833333333333336)"/><path d="M-388.04 440.95v-72.38" stroke="#000" stroke-width="2" fill="none"/><path/><path d="M-383.4 382.84h-9.28l4.64-14.27z"/><path d="M-382.03 383.84h-12.02l4.96-15.27h2.1zm-9.27-2h6.52l-3.26-10.03z"/><path d="M-199.5 440.95V314.3h-108.74" stroke="#000" stroke-width="2" fill="none"/><path/><path d="M-293.97 318.92l-14.27-4.63 14.27-4.65z"/><path d="M-292.97 320.3l-15.27-4.96v-2.1l15.27-4.97zm-12.03-6l10.03 3.24v-6.5z"/><path d="M-159.6 658.1H0v108.57h-159.6z" fill="none"/><use xlink:href="#m" transform="matrix(1,0,0,1,-154.60591133004942,663.0952380952381) translate(-21.296296296296333 54.833333333333336)"/><path d="M-299.26 712.38h139.65" stroke="#000" stroke-width="2" fill="none"/><path/><path d="M-159.6 712.38l-14.27 4.64v-9.27z"/><path d="M-159.6 711.33v2.1l-15.27 4.96v-12.03zm-13.27 4.3l10.03-3.25-10.03-3.26z"/><path d="M-1238.94 658.1h177.34v108.57h-177.34z" fill="none"/><use xlink:href="#a" transform="matrix(1,0,0,1,-1233.9408866995075,663.0952380952381) translate(35.99218749999999 44.16145833333333)"/><use xlink:href="#b" transform="matrix(1,0,0,1,-1233.9408866995075,663.0952380952381) translate(27.990885416666657 70.828125)"/><use xlink:href="#d" transform="matrix(1,0,0,1,-1233.9408866995075,663.0952380952381) translate(124.00651041666667 70.828125)"/><path d="M-857.66 658.1h177.34v108.57h-177.34z" fill="none"/><use xlink:href="#a" transform="matrix(1,0,0,1,-852.6600985221675,663.0952380952381) translate(35.99218749999999 44.16145833333333)"/><use xlink:href="#b" transform="matrix(1,0,0,1,-852.6600985221675,663.0952380952381) translate(27.990885416666657 70.828125)"/><use xlink:href="#i" transform="matrix(1,0,0,1,-852.6600985221675,663.0952380952381) translate(124.00651041666667 70.828125)"/><path d="M-857.66 911.43h177.34V1020h-177.34z" fill="none"/><use xlink:href="#e" transform="matrix(1,0,0,1,-852.6600985221675,916.4285714285713) translate(27.990885416666657 57.494791666666664)"/><use xlink:href="#i" transform="matrix(1,0,0,1,-852.6600985221675,916.4285714285713) translate(124.00651041666667 57.494791666666664)"/><path d="M-857.66 440.95h177.34v108.57h-177.34z" fill="none"/><use xlink:href="#f" transform="matrix(1,0,0,1,-852.6600985221675,445.9523809523809) translate(19.98958333333333 57.494791666666664)"/><use xlink:href="#i" transform="matrix(1,0,0,1,-852.6600985221675,445.9523809523809) translate(132.0078125 57.494791666666664)"/><path d="M-1061.6 712.38h203.94" stroke="#000" stroke-width="2" fill="none"/><path/><path d="M-857.66 712.38l-14.27 4.64v-9.27z"/><path d="M-857.66 711.33v2.1l-15.27 4.96v-12.03zm-13.27 4.3l10.03-3.25-10.03-3.26z"/><path d="M-769 911.43V766.67" stroke="#000" stroke-width="2" fill="none"/><path/><path d="M-764.35 780.93h-9.28l4.64-14.26z"/><path d="M-762.98 781.93H-775l4.96-15.26h2.1zm-9.27-2h6.52L-769 769.9z"/><path d="M-769 658.1V549.52" stroke="#000" stroke-width="2" fill="none"/><path/><path d="M-764.35 563.8h-9.28l4.64-14.28z"/><path d="M-762.98 564.8H-775l4.96-15.28h2.1zm-9.27-2h6.52l-3.26-10.04z"/><path d="M-660.37 440.95h159.6v108.57h-159.6z" fill="none"/><g><use xlink:href="#g" transform="matrix(1,0,0,1,-655.369458128079,445.9523809523809) translate(10.989583333333329 57.494791666666664)"/><use xlink:href="#i" transform="matrix(1,0,0,1,-655.369458128079,445.9523809523809) translate(123.00781250000001 57.494791666666664)"/></g><path d="M-848.9 260h159.6v108.57h-159.6z" fill="none"/><g><use xlink:href="#k" transform="matrix(1,0,0,1,-843.9039408866995,264.99999999999994) translate(35.74074074074073 54.833333333333336)"/><use xlink:href="#n" transform="matrix(1,0,0,1,-843.9039408866995,264.99999999999994) translate(99.44444444444444 54.833333333333336)"/></g><path d="M-769.1 440.95v-72.38" stroke="#000" stroke-width="2" fill="none"/><path/><path d="M-764.47 382.84h-9.27l4.64-14.27z"/><path d="M-763.1 383.84h-12l4.95-15.27h2.1zm-9.26-2h6.52l-3.26-10.03z"/><path d="M-580.57 440.95V314.3H-689.3" stroke="#000" stroke-width="2" fill="none"/><path/><path d="M-675.03 318.92l-14.27-4.63 14.27-4.65z"/><path d="M-674.03 320.3l-15.27-4.96v-2.1l15.27-4.97zm-12.03-6l10.03 3.24v-6.5z"/><defs><path d="M875 0v-623H353V0H162v-1349h191v566h522v-566h191V0H875" id="o"/><path d="M745-142h380V0H143v-142h422v-798H246v-142h499v940zM545-1292v-192h200v192H545" id="p"/><path d="M865-914c-3-187-2-380-2-570h180v1261c0 76 1 155 6 223H877c-8-49-9-116-10-174h-5C801-44 708 26 530 26c-135 0-234-46-297-139s-95-232-95-419c0-377 131-566 392-566 176 0 271 63 335 184zm-286-51c-222 0-255 197-255 427 0 229 31 425 253 425 237 0 286-195 286-441 0-238-52-411-284-411" id="q"/><path d="M617-1102c355 0 481 238 477 599H322c5 222 84 388 301 388 144 0 244-59 284-166l158 45C1002-72 854 20 623 20c-342 0-490-220-490-568 0-346 151-554 484-554zm291 461c-18-192-90-328-289-328-194 0-287 128-295 328h584" id="r"/><path d="M706-1102c241 0 344 136 343 381V0H868v-695c1-168-57-273-220-268-190 6-283 138-283 336V0H185c-3-360 6-732-6-1082h170c4 54 7 126 8 185h3c63-121 164-204 346-205" id="s"/><g id="a"><use transform="matrix(0.013020833333333334,0,0,0.013020833333333334,0,0)" xlink:href="#o"/><use transform="matrix(0.013020833333333334,0,0,0.013020833333333334,16.002604166666668,0)" xlink:href="#p"/><use transform="matrix(0.013020833333333334,0,0,0.013020833333333334,32.005208333333336,0)" xlink:href="#q"/><use transform="matrix(0.013020833333333334,0,0,0.013020833333333334,48.0078125,0)" xlink:href="#q"/><use transform="matrix(0.013020833333333334,0,0,0.013020833333333334,64.01041666666667,0)" xlink:href="#r"/><use transform="matrix(0.013020833333333334,0,0,0.013020833333333334,80.01302083333334,0)" xlink:href="#s"/></g><path d="M873-819c-18-114-119-146-250-146-163 0-245 50-245 151 0 151 170 148 294 185 182 54 388 94 388 320 0 240-189 325-439 329-245 4-410-69-454-268l159-31c24 133 136 168 295 165 144-2 270-31 270-171 0-164-195-160-331-202-167-52-350-87-350-299 0-218 173-315 413-313 220 2 373 77 412 260" id="t"/><path d="M682 16c-209 0-323-80-324-285v-671H190v-142h170l58-282h120v282h432v142H538v652c2 114 60 155 182 155 106 0 209-16 297-34v137C921-4 806 16 682 16" id="u"/><path d="M1000-272c3 95 12 159 101 161 21 0 41-3 59-7V-6c-44 10-86 16-139 16-141 2-191-84-197-217h-6C748-76 648 20 446 20c-207 0-318-120-318-322 0-266 194-348 454-354l236-4c12-191-40-305-222-305-140 0-220 47-232 172l-188-17c33-204 181-292 423-292 255 0 401 118 401 364v466zm-683-27c0 109 63 184 175 182 166-3 259-96 306-217 24-65 20-120 20-200-232 7-501-28-501 235" id="v"/><g id="b"><use transform="matrix(0.013020833333333334,0,0,0.013020833333333334,0,0)" xlink:href="#t"/><use transform="matrix(0.013020833333333334,0,0,0.013020833333333334,16.002604166666668,0)" xlink:href="#u"/><use transform="matrix(0.013020833333333334,0,0,0.013020833333333334,32.005208333333336,0)" xlink:href="#v"/><use transform="matrix(0.013020833333333334,0,0,0.013020833333333334,48.0078125,0)" xlink:href="#u"/><use transform="matrix(0.013020833333333334,0,0,0.013020833333333334,64.01041666666667,0)" xlink:href="#r"/></g><path d="M1065-1013c47 164 49 500-1 665C999-130 875 20 611 20c-377 0-484-300-487-695-2-245 41-425 141-551 77-98 191-144 352-144 261 0 386 140 448 357zM741-155c199-92 203-504 159-785-26-168-96-284-283-284-281 0-308 256-311 549-2 181 18 324 80 428 46 77 115 118 227 120 47 0 90-10 128-28" id="w"/><use transform="matrix(0.013020833333333334,0,0,0.013020833333333334,0,0)" xlink:href="#w" id="c"/><path d="M148-1120c216-7 379-89 463-229h166v1204h353V0H157v-145h439v-1021c-79 124-254 184-448 194v-148" id="x"/><use transform="matrix(0.013020833333333334,0,0,0.013020833333333334,0,0)" xlink:href="#x" id="d"/><path d="M202-1349h823v156H709v1037h316V0H202v-156h316v-1037H202v-156" id="y"/><path d="M698-1104c312 3 392 244 392 558 0 315-82 566-392 566-169 0-277-65-331-184h-5c8 188 2 394 4 589H185V-858c0-76-1-156-6-224h175c6 52 9 120 10 178h4c58-122 150-202 330-200zm-49 991c225 0 255-203 255-433 0-225-32-419-253-419-236 0-285 192-285 441 0 237 53 411 283 411" id="z"/><path d="M528 20c-247 0-343-132-343-381v-721h180v686c-4 177 45 284 224 277 194-8 279-136 279-336v-627h181c3 360-6 732 6 1082H885c-4-54-7-126-8-185h-3C809-64 714 20 528 20" id="A"/><g id="e"><use transform="matrix(0.013020833333333334,0,0,0.013020833333333334,0,0)" xlink:href="#y"/><use transform="matrix(0.013020833333333334,0,0,0.013020833333333334,16.002604166666668,0)" xlink:href="#s"/><use transform="matrix(0.013020833333333334,0,0,0.013020833333333334,32.005208333333336,0)" xlink:href="#z"/><use transform="matrix(0.013020833333333334,0,0,0.013020833333333334,48.0078125,0)" xlink:href="#A"/><use transform="matrix(0.013020833333333334,0,0,0.013020833333333334,64.01041666666667,0)" xlink:href="#u"/></g><path d="M102-681c0-398 126-689 513-689 165 0 291 58 379 174s132 287 132 515c-1 318-88 554-298 657-123 61-317 58-438-3-206-104-288-341-288-654zm749 406c94-160 97-656-5-807-57-85-130-132-231-132-104 0-178 47-234 132-101 153-99 655 1 809 57 89 130 138 232 138 109 0 184-49 237-140" id="B"/><g id="f"><use transform="matrix(0.013020833333333334,0,0,0.013020833333333334,0,0)" xlink:href="#B"/><use transform="matrix(0.013020833333333334,0,0,0.013020833333333334,16.002604166666668,0)" xlink:href="#A"/><use transform="matrix(0.013020833333333334,0,0,0.013020833333333334,32.005208333333336,0)" xlink:href="#u"/><use transform="matrix(0.013020833333333334,0,0,0.013020833333333334,48.0078125,0)" xlink:href="#z"/><use transform="matrix(0.013020833333333334,0,0,0.013020833333333334,64.01041666666667,0)" xlink:href="#A"/><use transform="matrix(0.013020833333333334,0,0,0.013020833333333334,80.01302083333334,0)" xlink:href="#u"/></g><path d="M709-1193V0H519v-1193H76v-156h1076v156H709" id="C"/><path d="M839-1102c70 0 148 7 206 17v167c-112-18-268-36-363 15-129 69-208 203-208 395V0H294c-10-367 32-789-52-1082h171c21 75 41 161 48 250h5c67-152 152-270 373-270" id="D"/><path d="M1048-32c-2 300-135 456-433 456-222-1-358-88-400-267l184-25c22 99 100 157 222 156 184-2 248-125 248-315 0-64 3-133-2-194C807-100 706-13 524-12c-306 0-381-228-381-537 0-318 85-550 400-550 164 0 271 83 325 202h3c1-60 3-134 12-185h171c-13 339-4 702-6 1050zM585-145c210-8 284-178 284-406 0-192-52-331-177-392-33-16-69-22-104-22-223 2-259 184-259 414 0 229 31 415 256 406" id="E"/><g id="g"><use transform="matrix(0.013020833333333334,0,0,0.013020833333333334,0,0)" xlink:href="#C"/><use transform="matrix(0.013020833333333334,0,0,0.013020833333333334,16.002604166666668,0)" xlink:href="#v"/><use transform="matrix(0.013020833333333334,0,0,0.013020833333333334,32.005208333333336,0)" xlink:href="#D"/><use transform="matrix(0.013020833333333334,0,0,0.013020833333333334,48.0078125,0)" xlink:href="#E"/><use transform="matrix(0.013020833333333334,0,0,0.013020833333333334,64.01041666666667,0)" xlink:href="#r"/><use transform="matrix(0.013020833333333334,0,0,0.013020833333333334,80.01302083333334,0)" xlink:href="#u"/></g><path d="M237 0v-1349h191v1193h672V0H237" id="F"/><path d="M615-1102c343 0 484 203 482 560-1 347-147 562-488 562-336 0-475-219-479-562-4-349 156-560 485-560zm-8 989c240 0 301-180 301-429 0-245-55-427-290-427-236 0-299 181-299 427 0 243 61 429 288 429" id="G"/><g id="h"><use transform="matrix(0.013020833333333334,0,0,0.013020833333333334,0,0)" xlink:href="#F"/><use transform="matrix(0.013020833333333334,0,0,0.013020833333333334,16.002604166666668,0)" xlink:href="#G"/><use transform="matrix(0.013020833333333334,0,0,0.013020833333333334,32.005208333333336,0)" xlink:href="#t"/><use transform="matrix(0.013020833333333334,0,0,0.013020833333333334,48.0078125,0)" xlink:href="#t"/></g><path d="M611-1370c266 0 451 106 451 368 0 147-77 243-154 327-132 144-316 255-451 395-42 44-75 87-96 134h723V0H144v-117c124-264 387-411 582-603 73-72 151-147 151-271 0-161-104-231-266-231-163 0-249 90-268 238l-184-17c35-233 185-369 452-369" id="H"/><use transform="matrix(0.013020833333333334,0,0,0.013020833333333334,0,0)" xlink:href="#H" id="i"/><path d="M1060-1016c0 191-128 285-295 323v4c154 18 262 91 313 209 14 35 21 72 21 110 0 277-194 390-478 390-292 0-457-129-493-382l186-17c24 161 121 250 307 250 172 1 298-80 291-247-8-208-220-239-446-233v-156c217 9 409-34 409-232 0-152-102-225-264-225-159 0-264 88-278 233l-181-14c33-239 196-367 461-367 264 0 447 102 447 354" id="I"/><use transform="matrix(0.013020833333333334,0,0,0.013020833333333334,0,0)" xlink:href="#I" id="j"/><path d="M30 0v-248h33v221h125V0H30" id="J"/><path d="M100-194c62-1 85 37 85 99 1 63-27 99-86 99S16-35 15-95c0-66 28-99 85-99zM99-20c44 1 53-31 53-75 0-43-8-75-51-75s-53 32-53 75 10 74 51 75" id="K"/><path d="M135-143c-3-34-86-38-87 0 15 53 115 12 119 90S17 21 10-45l28-5c4 36 97 45 98 0-10-56-113-15-118-90-4-57 82-63 122-42 12 7 21 19 24 35" id="L"/><g id="k"><use transform="matrix(0.07407407407407408,0,0,0.07407407407407408,0,0)" xlink:href="#J"/><use transform="matrix(0.07407407407407408,0,0,0.07407407407407408,14.814814814814817,0)" xlink:href="#K"/><use transform="matrix(0.07407407407407408,0,0,0.07407407407407408,29.629629629629633,0)" xlink:href="#L"/><use transform="matrix(0.07407407407407408,0,0,0.07407407407407408,42.96296296296297,0)" xlink:href="#L"/></g><path d="M126-127c33 6 58 20 58 59 0 88-139 92-164 29-3-8-5-16-6-25l32-3c6 27 21 44 54 44 32 0 52-15 52-46 0-38-36-46-79-43v-28c39 1 72-4 72-42 0-27-17-43-46-43-28 0-47 15-49 41l-32-3c6-42 35-63 81-64 48-1 79 21 79 65 0 36-21 52-52 59" id="M"/><use transform="matrix(0.07407407407407408,0,0,0.07407407407407408,0,0)" xlink:href="#M" id="l"/><path d="M33 0v-38h34V0H33" id="N"/><g id="m"><use transform="matrix(0.07407407407407408,0,0,0.07407407407407408,0,0)" xlink:href="#N"/><use transform="matrix(0.07407407407407408,0,0,0.07407407407407408,7.407407407407408,0)" xlink:href="#N"/><use transform="matrix(0.07407407407407408,0,0,0.07407407407407408,14.814814814814817,0)" xlink:href="#N"/><use transform="matrix(0.07407407407407408,0,0,0.07407407407407408,22.222222222222225,0)" xlink:href="#N"/><use transform="matrix(0.07407407407407408,0,0,0.07407407407407408,29.629629629629633,0)" xlink:href="#N"/><use transform="matrix(0.07407407407407408,0,0,0.07407407407407408,37.03703703703704,0)" xlink:href="#N"/><use transform="matrix(0.07407407407407408,0,0,0.07407407407407408,44.44444444444444,0)" xlink:href="#N"/><use transform="matrix(0.07407407407407408,0,0,0.07407407407407408,51.85185185185185,0)" xlink:href="#N"/><use transform="matrix(0.07407407407407408,0,0,0.07407407407407408,59.25925925925925,0)" xlink:href="#N"/><use transform="matrix(0.07407407407407408,0,0,0.07407407407407408,66.66666666666666,0)" xlink:href="#N"/><use transform="matrix(0.07407407407407408,0,0,0.07407407407407408,74.07407407407406,0)" xlink:href="#N"/><use transform="matrix(0.07407407407407408,0,0,0.07407407407407408,81.48148148148145,0)" xlink:href="#N"/><use transform="matrix(0.07407407407407408,0,0,0.07407407407407408,88.88888888888887,0)" xlink:href="#N"/><use transform="matrix(0.07407407407407408,0,0,0.07407407407407408,96.29629629629628,0)" xlink:href="#N"/><use transform="matrix(0.07407407407407408,0,0,0.07407407407407408,103.70370370370368,0)" xlink:href="#N"/><use transform="matrix(0.07407407407407408,0,0,0.07407407407407408,111.11111111111109,0)" xlink:href="#N"/><use transform="matrix(0.07407407407407408,0,0,0.07407407407407408,118.51851851851849,0)" xlink:href="#N"/><use transform="matrix(0.07407407407407408,0,0,0.07407407407407408,125.9259259259259,0)" xlink:href="#N"/><use transform="matrix(0.07407407407407408,0,0,0.07407407407407408,133.33333333333331,0)" xlink:href="#N"/><use transform="matrix(0.07407407407407408,0,0,0.07407407407407408,140.74074074074073,0)" xlink:href="#N"/><use transform="matrix(0.07407407407407408,0,0,0.07407407407407408,148.14814814814815,0)" xlink:href="#N"/><use transform="matrix(0.07407407407407408,0,0,0.07407407407407408,155.55555555555557,0)" xlink:href="#N"/><use transform="matrix(0.07407407407407408,0,0,0.07407407407407408,162.962962962963,0)" xlink:href="#N"/><use transform="matrix(0.07407407407407408,0,0,0.07407407407407408,170.37037037037038,0)" xlink:href="#N"/><use transform="matrix(0.07407407407407408,0,0,0.07407407407407408,177.77777777777783,0)" xlink:href="#N"/><use transform="matrix(0.07407407407407408,0,0,0.07407407407407408,185.18518518518525,0)" xlink:href="#N"/></g><path d="M101-251c82-7 93 87 43 132L82-64C71-53 59-42 53-27h129V0H18c2-99 128-94 128-182 0-28-16-43-45-43s-46 15-49 41l-32-3c6-41 34-60 81-64" id="O"/><use transform="matrix(0.07407407407407408,0,0,0.07407407407407408,0,0)" xlink:href="#O" id="n"/></defs></g></svg>