<?xml version="1.0" encoding="UTF-8" standalone="no"?>
<!DOCTYPE svg PUBLIC "-//W3C//DTD SVG 1.1//EN"
 "http://www.w3.org/Graphics/SVG/1.1/DTD/svg11.dtd">
<!-- Generated by graphviz version 11.0.0 (20240428.1522)
 -->
<!-- Pages: 1 -->
<svg width="1580pt" height="210pt"
 viewBox="0.00 0.00 1580.00 210.00" xmlns="http://www.w3.org/2000/svg" xmlns:xlink="http://www.w3.org/1999/xlink">
<g id="graph0" class="graph" transform="scale(1 1) rotate(0) translate(4 206)">
<polygon fill="white" stroke="none" points="-4,4 -4,-206 1576,-206 1576,4 -4,4"/>
<!-- 5063318544 -->
<g id="node1" class="node">
<title>5063318544</title>
<polygon fill="none" stroke="black" points="681.75,-82.5 681.75,-118.5 952.5,-118.5 952.5,-82.5 681.75,-82.5"/>
<text text-anchor="middle" x="734.38" y="-95.7" font-family="Times,serif" font-size="14.00">x1*w1 + x2*w2</text>
<polyline fill="none" stroke="black" points="787,-83 787,-118.5"/>
<text text-anchor="middle" x="829.12" y="-95.7" font-family="Times,serif" font-size="14.00">data &#45;6.0000</text>
<polyline fill="none" stroke="black" points="871.25,-83 871.25,-118.5"/>
<text text-anchor="middle" x="911.88" y="-95.7" font-family="Times,serif" font-size="14.00">grad 5.0000</text>
</g>
<!-- 5064712592+ -->
<g id="node14" class="node">
<title>5064712592+</title>
<ellipse fill="none" stroke="black" cx="1015.5" cy="-127.5" rx="27" ry="18"/>
<text text-anchor="middle" x="1015.5" y="-122.45" font-family="Times,serif" font-size="14.00">+</text>
</g>
<!-- 5063318544&#45;&gt;5064712592+ -->
<g id="edge7" class="edge">
<title>5063318544&#45;&gt;5064712592+</title>
<path fill="none" stroke="black" d="M952.64,-118.99C961.45,-120.21 969.81,-121.36 977.37,-122.4"/>
<polygon fill="black" stroke="black" points="976.66,-125.83 987.05,-123.73 977.62,-118.9 976.66,-125.83"/>
</g>
<!-- 5063318544+ -->
<g id="node2" class="node">
<title>5063318544+</title>
<ellipse fill="none" stroke="black" cx="618.75" cy="-100.5" rx="27" ry="18"/>
<text text-anchor="middle" x="618.75" y="-95.45" font-family="Times,serif" font-size="14.00">+</text>
</g>
<!-- 5063318544+&#45;&gt;5063318544 -->
<g id="edge1" class="edge">
<title>5063318544+&#45;&gt;5063318544</title>
<path fill="none" stroke="black" d="M646.23,-100.5C653.23,-100.5 661.29,-100.5 670.02,-100.5"/>
<polygon fill="black" stroke="black" points="669.89,-104 679.89,-100.5 669.89,-97 669.89,-104"/>
</g>
<!-- 5063314320 -->
<g id="node3" class="node">
<title>5063314320</title>
<polygon fill="none" stroke="black" points="330.75,-110.5 330.75,-146.5 555.75,-146.5 555.75,-110.5 330.75,-110.5"/>
<text text-anchor="middle" x="357.12" y="-123.7" font-family="Times,serif" font-size="14.00">x1*w1</text>
<polyline fill="none" stroke="black" points="383.5,-111 383.5,-146.5"/>
<text text-anchor="middle" x="425.62" y="-123.7" font-family="Times,serif" font-size="14.00">data &#45;6.0000</text>
<polyline fill="none" stroke="black" points="467.75,-111 467.75,-146.5"/>
<text text-anchor="middle" x="511.75" y="-123.7" font-family="Times,serif" font-size="14.00">grad 10.0000</text>
</g>
<!-- 5063314320&#45;&gt;5063318544+ -->
<g id="edge12" class="edge">
<title>5063314320&#45;&gt;5063318544+</title>
<path fill="none" stroke="black" d="M556.09,-110.45C564.87,-109.03 573.27,-107.68 580.9,-106.45"/>
<polygon fill="black" stroke="black" points="581.37,-109.92 590.68,-104.87 580.25,-103.01 581.37,-109.92"/>
</g>
<!-- 5063314320* -->
<g id="node4" class="node">
<title>5063314320*</title>
<ellipse fill="none" stroke="black" cx="267.75" cy="-128.5" rx="27" ry="18"/>
<text text-anchor="middle" x="267.75" y="-123.45" font-family="Times,serif" font-size="14.00">*</text>
</g>
<!-- 5063314320*&#45;&gt;5063314320 -->
<g id="edge2" class="edge">
<title>5063314320*&#45;&gt;5063314320</title>
<path fill="none" stroke="black" d="M295.1,-128.5C302.17,-128.5 310.29,-128.5 319.02,-128.5"/>
<polygon fill="black" stroke="black" points="318.85,-132 328.85,-128.5 318.85,-125 318.85,-132"/>
</g>
<!-- 5064372304 -->
<g id="node5" class="node">
<title>5064372304</title>
<polygon fill="none" stroke="black" points="1.5,-165.5 1.5,-201.5 203.25,-201.5 203.25,-165.5 1.5,-165.5"/>
<text text-anchor="middle" x="16.25" y="-178.7" font-family="Times,serif" font-size="14.00">x1</text>
<polyline fill="none" stroke="black" points="31,-166 31,-201.5"/>
<text text-anchor="middle" x="70.88" y="-178.7" font-family="Times,serif" font-size="14.00">data 2.0000</text>
<polyline fill="none" stroke="black" points="110.75,-166 110.75,-201.5"/>
<text text-anchor="middle" x="157" y="-178.7" font-family="Times,serif" font-size="14.00">grad &#45;52.5000</text>
</g>
<!-- 5064372304&#45;&gt;5063314320* -->
<g id="edge14" class="edge">
<title>5064372304&#45;&gt;5063314320*</title>
<path fill="none" stroke="black" d="M178.27,-165.04C187.26,-162.39 196.26,-159.53 204.75,-156.5 214.85,-152.9 225.59,-148.33 235.24,-143.93"/>
<polygon fill="black" stroke="black" points="236.64,-147.14 244.21,-139.74 233.67,-140.8 236.64,-147.14"/>
</g>
<!-- 5064374928 -->
<g id="node6" class="node">
<title>5064374928</title>
<polygon fill="none" stroke="black" points="3.75,-55.5 3.75,-91.5 201,-91.5 201,-55.5 3.75,-55.5"/>
<text text-anchor="middle" x="18.5" y="-68.7" font-family="Times,serif" font-size="14.00">x2</text>
<polyline fill="none" stroke="black" points="33.25,-56 33.25,-91.5"/>
<text text-anchor="middle" x="73.12" y="-68.7" font-family="Times,serif" font-size="14.00">data 0.0000</text>
<polyline fill="none" stroke="black" points="113,-56 113,-91.5"/>
<text text-anchor="middle" x="157" y="-68.7" font-family="Times,serif" font-size="14.00">grad 17.5000</text>
</g>
<!-- 5063325968* -->
<g id="node10" class="node">
<title>5063325968*</title>
<ellipse fill="none" stroke="black" cx="267.75" cy="-73.5" rx="27" ry="18"/>
<text text-anchor="middle" x="267.75" y="-68.45" font-family="Times,serif" font-size="14.00">*</text>
</g>
<!-- 5064374928&#45;&gt;5063325968* -->
<g id="edge8" class="edge">
<title>5064374928&#45;&gt;5063325968*</title>
<path fill="none" stroke="black" d="M201.24,-73.5C211.03,-73.5 220.5,-73.5 229.05,-73.5"/>
<polygon fill="black" stroke="black" points="228.96,-77 238.96,-73.5 228.96,-70 228.96,-77"/>
</g>
<!-- 5064515280 -->
<g id="node7" class="node">
<title>5064515280</title>
<polygon fill="none" stroke="black" points="0,-110.5 0,-146.5 204.75,-146.5 204.75,-110.5 0,-110.5"/>
<text text-anchor="middle" x="16.25" y="-123.7" font-family="Times,serif" font-size="14.00">w1</text>
<polyline fill="none" stroke="black" points="32.5,-111 32.5,-146.5"/>
<text text-anchor="middle" x="74.62" y="-123.7" font-family="Times,serif" font-size="14.00">data &#45;3.0000</text>
<polyline fill="none" stroke="black" points="116.75,-111 116.75,-146.5"/>
<text text-anchor="middle" x="160.75" y="-123.7" font-family="Times,serif" font-size="14.00">grad 35.0000</text>
</g>
<!-- 5064515280&#45;&gt;5063314320* -->
<g id="edge11" class="edge">
<title>5064515280&#45;&gt;5063314320*</title>
<path fill="none" stroke="black" d="M204.98,-128.5C213.4,-128.5 221.52,-128.5 228.94,-128.5"/>
<polygon fill="black" stroke="black" points="228.84,-132 238.84,-128.5 228.84,-125 228.84,-132"/>
</g>
<!-- 5064265424 -->
<g id="node8" class="node">
<title>5064265424</title>
<polygon fill="none" stroke="black" points="5.62,-0.5 5.62,-36.5 199.12,-36.5 199.12,-0.5 5.62,-0.5"/>
<text text-anchor="middle" x="21.88" y="-13.7" font-family="Times,serif" font-size="14.00">w2</text>
<polyline fill="none" stroke="black" points="38.12,-1 38.12,-36.5"/>
<text text-anchor="middle" x="78" y="-13.7" font-family="Times,serif" font-size="14.00">data 1.0000</text>
<polyline fill="none" stroke="black" points="117.88,-1 117.88,-36.5"/>
<text text-anchor="middle" x="158.5" y="-13.7" font-family="Times,serif" font-size="14.00">grad 0.0000</text>
</g>
<!-- 5064265424&#45;&gt;5063325968* -->
<g id="edge9" class="edge">
<title>5064265424&#45;&gt;5063325968*</title>
<path fill="none" stroke="black" d="M175.21,-36.98C185.2,-39.95 195.28,-43.15 204.75,-46.5 214.72,-50.03 225.35,-54.42 234.95,-58.62"/>
<polygon fill="black" stroke="black" points="233.31,-61.72 243.86,-62.62 236.17,-55.34 233.31,-61.72"/>
</g>
<!-- 5063325968 -->
<g id="node9" class="node">
<title>5063325968</title>
<polygon fill="none" stroke="black" points="333,-55.5 333,-91.5 553.5,-91.5 553.5,-55.5 333,-55.5"/>
<text text-anchor="middle" x="359.38" y="-68.7" font-family="Times,serif" font-size="14.00">x2*w2</text>
<polyline fill="none" stroke="black" points="385.75,-56 385.75,-91.5"/>
<text text-anchor="middle" x="425.62" y="-68.7" font-family="Times,serif" font-size="14.00">data 0.0000</text>
<polyline fill="none" stroke="black" points="465.5,-56 465.5,-91.5"/>
<text text-anchor="middle" x="509.5" y="-68.7" font-family="Times,serif" font-size="14.00">grad 10.0000</text>
</g>
<!-- 5063325968&#45;&gt;5063318544+ -->
<g id="edge6" class="edge">
<title>5063325968&#45;&gt;5063318544+</title>
<path fill="none" stroke="black" d="M553.64,-90.52C563.3,-92.03 572.55,-93.47 580.88,-94.76"/>
<polygon fill="black" stroke="black" points="580.06,-98.18 590.48,-96.26 581.14,-91.26 580.06,-98.18"/>
</g>
<!-- 5063325968*&#45;&gt;5063325968 -->
<g id="edge3" class="edge">
<title>5063325968*&#45;&gt;5063325968</title>
<path fill="none" stroke="black" d="M295.1,-73.5C302.73,-73.5 311.6,-73.5 321.13,-73.5"/>
<polygon fill="black" stroke="black" points="321.07,-77 331.07,-73.5 321.07,-70 321.07,-77"/>
</g>
<!-- 5063219024 -->
<g id="node11" class="node">
<title>5063219024</title>
<polygon fill="none" stroke="black" points="1388.25,-109.5 1388.25,-145.5 1572,-145.5 1572,-109.5 1388.25,-109.5"/>
<text text-anchor="middle" x="1399.62" y="-122.7" font-family="Times,serif" font-size="14.00">o</text>
<polyline fill="none" stroke="black" points="1411,-110 1411,-145.5"/>
<text text-anchor="middle" x="1450.88" y="-122.7" font-family="Times,serif" font-size="14.00">data 0.7071</text>
<polyline fill="none" stroke="black" points="1490.75,-110 1490.75,-145.5"/>
<text text-anchor="middle" x="1531.38" y="-122.7" font-family="Times,serif" font-size="14.00">grad 1.0000</text>
</g>
<!-- 5063219024tanh -->
<g id="node12" class="node">
<title>5063219024tanh</title>
<ellipse fill="none" stroke="black" cx="1325.25" cy="-127.5" rx="27" ry="18"/>
<text text-anchor="middle" x="1325.25" y="-122.45" font-family="Times,serif" font-size="14.00">tanh</text>
</g>
<!-- 5063219024tanh&#45;&gt;5063219024 -->
<g id="edge4" class="edge">
<title>5063219024tanh&#45;&gt;5063219024</title>
<path fill="none" stroke="black" d="M1352.53,-127.5C1359.67,-127.5 1367.86,-127.5 1376.57,-127.5"/>
<polygon fill="black" stroke="black" points="1376.31,-131 1386.31,-127.5 1376.31,-124 1376.31,-131"/>
</g>
<!-- 5064712592 -->
<g id="node13" class="node">
<title>5064712592</title>
<polygon fill="none" stroke="black" points="1078.5,-109.5 1078.5,-145.5 1262.25,-145.5 1262.25,-109.5 1078.5,-109.5"/>
<text text-anchor="middle" x="1089.88" y="-122.7" font-family="Times,serif" font-size="14.00">n</text>
<polyline fill="none" stroke="black" points="1101.25,-110 1101.25,-145.5"/>
<text text-anchor="middle" x="1141.12" y="-122.7" font-family="Times,serif" font-size="14.00">data 0.8814</text>
<polyline fill="none" stroke="black" points="1181,-110 1181,-145.5"/>
<text text-anchor="middle" x="1221.62" y="-122.7" font-family="Times,serif" font-size="14.00">grad 2.0000</text>
</g>
<!-- 5064712592&#45;&gt;5063219024tanh -->
<g id="edge10" class="edge">
<title>5064712592&#45;&gt;5063219024tanh</title>
<path fill="none" stroke="black" d="M1262.51,-127.5C1270.89,-127.5 1279.02,-127.5 1286.48,-127.5"/>
<polygon fill="black" stroke="black" points="1286.45,-131 1296.45,-127.5 1286.45,-124 1286.45,-131"/>
</g>
<!-- 5064712592+&#45;&gt;5064712592 -->
<g id="edge5" class="edge">
<title>5064712592+&#45;&gt;5064712592</title>
<path fill="none" stroke="black" d="M1042.78,-127.5C1049.92,-127.5 1058.11,-127.5 1066.82,-127.5"/>
<polygon fill="black" stroke="black" points="1066.56,-131 1076.56,-127.5 1066.56,-124 1066.56,-131"/>
</g>
<!-- 5064272336 -->
<g id="node15" class="node">
<title>5064272336</title>
<polygon fill="none" stroke="black" points="725.25,-137.5 725.25,-173.5 909,-173.5 909,-137.5 725.25,-137.5"/>
<text text-anchor="middle" x="736.62" y="-150.7" font-family="Times,serif" font-size="14.00">b</text>
<polyline fill="none" stroke="black" points="748,-138 748,-173.5"/>
<text text-anchor="middle" x="787.88" y="-150.7" font-family="Times,serif" font-size="14.00">data 6.8814</text>
<polyline fill="none" stroke="black" points="827.75,-138 827.75,-173.5"/>
<text text-anchor="middle" x="868.38" y="-150.7" font-family="Times,serif" font-size="14.00">grad 5.0000</text>
</g>
<!-- 5064272336&#45;&gt;5064712592+ -->
<g id="edge13" class="edge">
<title>5064272336&#45;&gt;5064712592+</title>
<path fill="none" stroke="black" d="M909.41,-142.48C933.47,-139.05 958.08,-135.55 977.43,-132.79"/>
<polygon fill="black" stroke="black" points="977.84,-136.26 987.25,-131.39 976.85,-129.33 977.84,-136.26"/>
</g>
</g>
</svg>
