<?xml version="1.0" encoding="UTF-8" standalone="no"?>
<!DOCTYPE svg PUBLIC "-//W3C//DTD SVG 1.1//EN"
 "http://www.w3.org/Graphics/SVG/1.1/DTD/svg11.dtd">
<!-- Generated by graphviz version 11.0.0 (20240428.1522)
 -->
<!-- Pages: 1 -->
<svg width="1573pt" height="210pt"
 viewBox="0.00 0.00 1573.25 210.00" xmlns="http://www.w3.org/2000/svg" xmlns:xlink="http://www.w3.org/1999/xlink">
<g id="graph0" class="graph" transform="scale(1 1) rotate(0) translate(4 206)">
<polygon fill="white" stroke="none" points="-4,4 -4,-206 1569.25,-206 1569.25,4 -4,4"/>
<!-- 5063318544 -->
<g id="node1" class="node">
<title>5063318544</title>
<polygon fill="none" stroke="black" points="675,-82.5 675,-118.5 945.75,-118.5 945.75,-82.5 675,-82.5"/>
<text text-anchor="middle" x="727.62" y="-95.7" font-family="Times,serif" font-size="14.00">x1*w1 + x2*w2</text>
<polyline fill="none" stroke="black" points="780.25,-83 780.25,-118.5"/>
<text text-anchor="middle" x="822.38" y="-95.7" font-family="Times,serif" font-size="14.00">data &#45;6.0000</text>
<polyline fill="none" stroke="black" points="864.5,-83 864.5,-118.5"/>
<text text-anchor="middle" x="905.12" y="-95.7" font-family="Times,serif" font-size="14.00">grad 3.0000</text>
</g>
<!-- 5064712592+ -->
<g id="node14" class="node">
<title>5064712592+</title>
<ellipse fill="none" stroke="black" cx="1008.75" cy="-127.5" rx="27" ry="18"/>
<text text-anchor="middle" x="1008.75" y="-122.45" font-family="Times,serif" font-size="14.00">+</text>
</g>
<!-- 5063318544&#45;&gt;5064712592+ -->
<g id="edge7" class="edge">
<title>5063318544&#45;&gt;5064712592+</title>
<path fill="none" stroke="black" d="M945.89,-118.99C954.7,-120.21 963.06,-121.36 970.62,-122.4"/>
<polygon fill="black" stroke="black" points="969.91,-125.83 980.3,-123.73 970.87,-118.9 969.91,-125.83"/>
</g>
<!-- 5063318544+ -->
<g id="node2" class="node">
<title>5063318544+</title>
<ellipse fill="none" stroke="black" cx="612" cy="-100.5" rx="27" ry="18"/>
<text text-anchor="middle" x="612" y="-95.45" font-family="Times,serif" font-size="14.00">+</text>
</g>
<!-- 5063318544+&#45;&gt;5063318544 -->
<g id="edge1" class="edge">
<title>5063318544+&#45;&gt;5063318544</title>
<path fill="none" stroke="black" d="M639.48,-100.5C646.48,-100.5 654.54,-100.5 663.27,-100.5"/>
<polygon fill="black" stroke="black" points="663.14,-104 673.14,-100.5 663.14,-97 663.14,-104"/>
</g>
<!-- 5063314320 -->
<g id="node3" class="node">
<title>5063314320</title>
<polygon fill="none" stroke="black" points="330.75,-110.5 330.75,-146.5 549,-146.5 549,-110.5 330.75,-110.5"/>
<text text-anchor="middle" x="357.12" y="-123.7" font-family="Times,serif" font-size="14.00">x1*w1</text>
<polyline fill="none" stroke="black" points="383.5,-111 383.5,-146.5"/>
<text text-anchor="middle" x="425.62" y="-123.7" font-family="Times,serif" font-size="14.00">data &#45;6.0000</text>
<polyline fill="none" stroke="black" points="467.75,-111 467.75,-146.5"/>
<text text-anchor="middle" x="508.38" y="-123.7" font-family="Times,serif" font-size="14.00">grad 5.0000</text>
</g>
<!-- 5063314320&#45;&gt;5063318544+ -->
<g id="edge12" class="edge">
<title>5063314320&#45;&gt;5063318544+</title>
<path fill="none" stroke="black" d="M549.1,-110.69C557.87,-109.24 566.29,-107.86 573.94,-106.6"/>
<polygon fill="black" stroke="black" points="574.47,-110.06 583.77,-104.98 573.33,-103.15 574.47,-110.06"/>
</g>
<!-- 5063314320* -->
<g id="node4" class="node">
<title>5063314320*</title>
<ellipse fill="none" stroke="black" cx="267.75" cy="-128.5" rx="27" ry="18"/>
<text text-anchor="middle" x="267.75" y="-123.45" font-family="Times,serif" font-size="14.00">*</text>
</g>
<!-- 5063314320*&#45;&gt;5063314320 -->
<g id="edge2" class="edge">
<title>5063314320*&#45;&gt;5063314320</title>
<path fill="none" stroke="black" d="M294.96,-128.5C302.04,-128.5 310.18,-128.5 318.92,-128.5"/>
<polygon fill="black" stroke="black" points="318.76,-132 328.76,-128.5 318.76,-125 318.76,-132"/>
</g>
<!-- 5064372304 -->
<g id="node5" class="node">
<title>5064372304</title>
<polygon fill="none" stroke="black" points="1.5,-165.5 1.5,-201.5 203.25,-201.5 203.25,-165.5 1.5,-165.5"/>
<text text-anchor="middle" x="16.25" y="-178.7" font-family="Times,serif" font-size="14.00">x1</text>
<polyline fill="none" stroke="black" points="31,-166 31,-201.5"/>
<text text-anchor="middle" x="70.88" y="-178.7" font-family="Times,serif" font-size="14.00">data 2.0000</text>
<polyline fill="none" stroke="black" points="110.75,-166 110.75,-201.5"/>
<text text-anchor="middle" x="157" y="-178.7" font-family="Times,serif" font-size="14.00">grad &#45;22.5000</text>
</g>
<!-- 5064372304&#45;&gt;5063314320* -->
<g id="edge14" class="edge">
<title>5064372304&#45;&gt;5063314320*</title>
<path fill="none" stroke="black" d="M178.27,-165.04C187.26,-162.39 196.26,-159.53 204.75,-156.5 214.85,-152.9 225.59,-148.33 235.24,-143.93"/>
<polygon fill="black" stroke="black" points="236.64,-147.14 244.21,-139.74 233.67,-140.8 236.64,-147.14"/>
</g>
<!-- 5064374928 -->
<g id="node6" class="node">
<title>5064374928</title>
<polygon fill="none" stroke="black" points="7.12,-55.5 7.12,-91.5 197.62,-91.5 197.62,-55.5 7.12,-55.5"/>
<text text-anchor="middle" x="21.88" y="-68.7" font-family="Times,serif" font-size="14.00">x2</text>
<polyline fill="none" stroke="black" points="36.62,-56 36.62,-91.5"/>
<text text-anchor="middle" x="76.5" y="-68.7" font-family="Times,serif" font-size="14.00">data 0.0000</text>
<polyline fill="none" stroke="black" points="116.38,-56 116.38,-91.5"/>
<text text-anchor="middle" x="157" y="-68.7" font-family="Times,serif" font-size="14.00">grad 7.5000</text>
</g>
<!-- 5063325968* -->
<g id="node10" class="node">
<title>5063325968*</title>
<ellipse fill="none" stroke="black" cx="267.75" cy="-73.5" rx="27" ry="18"/>
<text text-anchor="middle" x="267.75" y="-68.45" font-family="Times,serif" font-size="14.00">*</text>
</g>
<!-- 5064374928&#45;&gt;5063325968* -->
<g id="edge8" class="edge">
<title>5064374928&#45;&gt;5063325968*</title>
<path fill="none" stroke="black" d="M197.94,-73.5C208.85,-73.5 219.45,-73.5 228.93,-73.5"/>
<polygon fill="black" stroke="black" points="228.77,-77 238.77,-73.5 228.77,-70 228.77,-77"/>
</g>
<!-- 5064515280 -->
<g id="node7" class="node">
<title>5064515280</title>
<polygon fill="none" stroke="black" points="0,-110.5 0,-146.5 204.75,-146.5 204.75,-110.5 0,-110.5"/>
<text text-anchor="middle" x="16.25" y="-123.7" font-family="Times,serif" font-size="14.00">w1</text>
<polyline fill="none" stroke="black" points="32.5,-111 32.5,-146.5"/>
<text text-anchor="middle" x="74.62" y="-123.7" font-family="Times,serif" font-size="14.00">data &#45;3.0000</text>
<polyline fill="none" stroke="black" points="116.75,-111 116.75,-146.5"/>
<text text-anchor="middle" x="160.75" y="-123.7" font-family="Times,serif" font-size="14.00">grad 15.0000</text>
</g>
<!-- 5064515280&#45;&gt;5063314320* -->
<g id="edge11" class="edge">
<title>5064515280&#45;&gt;5063314320*</title>
<path fill="none" stroke="black" d="M204.98,-128.5C213.4,-128.5 221.52,-128.5 228.94,-128.5"/>
<polygon fill="black" stroke="black" points="228.84,-132 238.84,-128.5 228.84,-125 228.84,-132"/>
</g>
<!-- 5064265424 -->
<g id="node8" class="node">
<title>5064265424</title>
<polygon fill="none" stroke="black" points="5.62,-0.5 5.62,-36.5 199.12,-36.5 199.12,-0.5 5.62,-0.5"/>
<text text-anchor="middle" x="21.88" y="-13.7" font-family="Times,serif" font-size="14.00">w2</text>
<polyline fill="none" stroke="black" points="38.12,-1 38.12,-36.5"/>
<text text-anchor="middle" x="78" y="-13.7" font-family="Times,serif" font-size="14.00">data 1.0000</text>
<polyline fill="none" stroke="black" points="117.88,-1 117.88,-36.5"/>
<text text-anchor="middle" x="158.5" y="-13.7" font-family="Times,serif" font-size="14.00">grad 0.0000</text>
</g>
<!-- 5064265424&#45;&gt;5063325968* -->
<g id="edge9" class="edge">
<title>5064265424&#45;&gt;5063325968*</title>
<path fill="none" stroke="black" d="M175.21,-36.98C185.2,-39.95 195.28,-43.15 204.75,-46.5 214.72,-50.03 225.35,-54.42 234.95,-58.62"/>
<polygon fill="black" stroke="black" points="233.31,-61.72 243.86,-62.62 236.17,-55.34 233.31,-61.72"/>
</g>
<!-- 5063325968 -->
<g id="node9" class="node">
<title>5063325968</title>
<polygon fill="none" stroke="black" points="333,-55.5 333,-91.5 546.75,-91.5 546.75,-55.5 333,-55.5"/>
<text text-anchor="middle" x="359.38" y="-68.7" font-family="Times,serif" font-size="14.00">x2*w2</text>
<polyline fill="none" stroke="black" points="385.75,-56 385.75,-91.5"/>
<text text-anchor="middle" x="425.62" y="-68.7" font-family="Times,serif" font-size="14.00">data 0.0000</text>
<polyline fill="none" stroke="black" points="465.5,-56 465.5,-91.5"/>
<text text-anchor="middle" x="506.12" y="-68.7" font-family="Times,serif" font-size="14.00">grad 5.0000</text>
</g>
<!-- 5063325968&#45;&gt;5063318544+ -->
<g id="edge6" class="edge">
<title>5063325968&#45;&gt;5063318544+</title>
<path fill="none" stroke="black" d="M547.17,-90.37C556.64,-91.87 565.75,-93.32 573.96,-94.62"/>
<polygon fill="black" stroke="black" points="573.38,-98.07 583.8,-96.18 574.47,-91.16 573.38,-98.07"/>
</g>
<!-- 5063325968*&#45;&gt;5063325968 -->
<g id="edge3" class="edge">
<title>5063325968*&#45;&gt;5063325968</title>
<path fill="none" stroke="black" d="M294.96,-73.5C302.75,-73.5 311.83,-73.5 321.57,-73.5"/>
<polygon fill="black" stroke="black" points="321.3,-77 331.3,-73.5 321.3,-70 321.3,-77"/>
</g>
<!-- 5063219024 -->
<g id="node11" class="node">
<title>5063219024</title>
<polygon fill="none" stroke="black" points="1381.5,-109.5 1381.5,-145.5 1565.25,-145.5 1565.25,-109.5 1381.5,-109.5"/>
<text text-anchor="middle" x="1392.88" y="-122.7" font-family="Times,serif" font-size="14.00">o</text>
<polyline fill="none" stroke="black" points="1404.25,-110 1404.25,-145.5"/>
<text text-anchor="middle" x="1444.12" y="-122.7" font-family="Times,serif" font-size="14.00">data 0.7071</text>
<polyline fill="none" stroke="black" points="1484,-110 1484,-145.5"/>
<text text-anchor="middle" x="1524.62" y="-122.7" font-family="Times,serif" font-size="14.00">grad 1.0000</text>
</g>
<!-- 5063219024tanh -->
<g id="node12" class="node">
<title>5063219024tanh</title>
<ellipse fill="none" stroke="black" cx="1318.5" cy="-127.5" rx="27" ry="18"/>
<text text-anchor="middle" x="1318.5" y="-122.45" font-family="Times,serif" font-size="14.00">tanh</text>
</g>
<!-- 5063219024tanh&#45;&gt;5063219024 -->
<g id="edge4" class="edge">
<title>5063219024tanh&#45;&gt;5063219024</title>
<path fill="none" stroke="black" d="M1345.78,-127.5C1352.92,-127.5 1361.11,-127.5 1369.82,-127.5"/>
<polygon fill="black" stroke="black" points="1369.56,-131 1379.56,-127.5 1369.56,-124 1369.56,-131"/>
</g>
<!-- 5064712592 -->
<g id="node13" class="node">
<title>5064712592</title>
<polygon fill="none" stroke="black" points="1071.75,-109.5 1071.75,-145.5 1255.5,-145.5 1255.5,-109.5 1071.75,-109.5"/>
<text text-anchor="middle" x="1083.12" y="-122.7" font-family="Times,serif" font-size="14.00">n</text>
<polyline fill="none" stroke="black" points="1094.5,-110 1094.5,-145.5"/>
<text text-anchor="middle" x="1134.38" y="-122.7" font-family="Times,serif" font-size="14.00">data 0.8814</text>
<polyline fill="none" stroke="black" points="1174.25,-110 1174.25,-145.5"/>
<text text-anchor="middle" x="1214.88" y="-122.7" font-family="Times,serif" font-size="14.00">grad 1.5000</text>
</g>
<!-- 5064712592&#45;&gt;5063219024tanh -->
<g id="edge10" class="edge">
<title>5064712592&#45;&gt;5063219024tanh</title>
<path fill="none" stroke="black" d="M1255.76,-127.5C1264.14,-127.5 1272.27,-127.5 1279.73,-127.5"/>
<polygon fill="black" stroke="black" points="1279.7,-131 1289.7,-127.5 1279.7,-124 1279.7,-131"/>
</g>
<!-- 5064712592+&#45;&gt;5064712592 -->
<g id="edge5" class="edge">
<title>5064712592+&#45;&gt;5064712592</title>
<path fill="none" stroke="black" d="M1036.03,-127.5C1043.17,-127.5 1051.36,-127.5 1060.07,-127.5"/>
<polygon fill="black" stroke="black" points="1059.81,-131 1069.81,-127.5 1059.81,-124 1059.81,-131"/>
</g>
<!-- 5064272336 -->
<g id="node15" class="node">
<title>5064272336</title>
<polygon fill="none" stroke="black" points="718.5,-137.5 718.5,-173.5 902.25,-173.5 902.25,-137.5 718.5,-137.5"/>
<text text-anchor="middle" x="729.88" y="-150.7" font-family="Times,serif" font-size="14.00">b</text>
<polyline fill="none" stroke="black" points="741.25,-138 741.25,-173.5"/>
<text text-anchor="middle" x="781.12" y="-150.7" font-family="Times,serif" font-size="14.00">data 6.8814</text>
<polyline fill="none" stroke="black" points="821,-138 821,-173.5"/>
<text text-anchor="middle" x="861.62" y="-150.7" font-family="Times,serif" font-size="14.00">grad 3.0000</text>
</g>
<!-- 5064272336&#45;&gt;5064712592+ -->
<g id="edge13" class="edge">
<title>5064272336&#45;&gt;5064712592+</title>
<path fill="none" stroke="black" d="M902.66,-142.48C926.72,-139.05 951.33,-135.55 970.68,-132.79"/>
<polygon fill="black" stroke="black" points="971.09,-136.26 980.5,-131.39 970.1,-129.33 971.09,-136.26"/>
</g>
</g>
</svg>
