<?xml version="1.0" encoding="UTF-8" standalone="no"?>
<!DOCTYPE svg PUBLIC "-//W3C//DTD SVG 1.1//EN"
 "http://www.w3.org/Graphics/SVG/1.1/DTD/svg11.dtd">
<!-- Generated by graphviz version 11.0.0 (20240428.1522)
 -->
<!-- Pages: 1 -->
<svg width="2929pt" height="236pt"
 viewBox="0.00 0.00 2929.25 236.00" xmlns="http://www.w3.org/2000/svg" xmlns:xlink="http://www.w3.org/1999/xlink">
<g id="graph0" class="graph" transform="scale(1 1) rotate(0) translate(4 232)">
<polygon fill="white" stroke="none" points="-4,4 -4,-232 2925.25,-232 2925.25,4 -4,4"/>
<!-- 4897300480 -->
<g id="node1" class="node">
<title>4897300480</title>
<polygon fill="none" stroke="black" points="324,-55.5 324,-91.5 542.25,-91.5 542.25,-55.5 324,-55.5"/>
<text text-anchor="middle" x="350.38" y="-68.7" font-family="Times,serif" font-size="14.00">x1*w1</text>
<polyline fill="none" stroke="black" points="376.75,-56 376.75,-91.5"/>
<text text-anchor="middle" x="418.88" y="-68.7" font-family="Times,serif" font-size="14.00">data &#45;6.0000</text>
<polyline fill="none" stroke="black" points="461,-56 461,-91.5"/>
<text text-anchor="middle" x="501.62" y="-68.7" font-family="Times,serif" font-size="14.00">grad 0.5000</text>
</g>
<!-- 4897303168+ -->
<g id="node10" class="node">
<title>4897303168+</title>
<ellipse fill="none" stroke="black" cx="605.25" cy="-100.5" rx="27" ry="18"/>
<text text-anchor="middle" x="605.25" y="-95.45" font-family="Times,serif" font-size="14.00">+</text>
</g>
<!-- 4897300480&#45;&gt;4897303168+ -->
<g id="edge12" class="edge">
<title>4897300480&#45;&gt;4897303168+</title>
<path fill="none" stroke="black" d="M542.35,-90.68C551.12,-92.07 559.54,-93.4 567.19,-94.62"/>
<polygon fill="black" stroke="black" points="566.59,-98.07 577.02,-96.18 567.69,-91.15 566.59,-98.07"/>
</g>
<!-- 4897300480* -->
<g id="node2" class="node">
<title>4897300480*</title>
<ellipse fill="none" stroke="black" cx="261" cy="-73.5" rx="27" ry="18"/>
<text text-anchor="middle" x="261" y="-68.45" font-family="Times,serif" font-size="14.00">*</text>
</g>
<!-- 4897300480*&#45;&gt;4897300480 -->
<g id="edge1" class="edge">
<title>4897300480*&#45;&gt;4897300480</title>
<path fill="none" stroke="black" d="M288.21,-73.5C295.29,-73.5 303.43,-73.5 312.17,-73.5"/>
<polygon fill="black" stroke="black" points="312.01,-77 322.01,-73.5 312.01,-70 312.01,-77"/>
</g>
<!-- 4897307152 -->
<g id="node3" class="node">
<title>4897307152</title>
<polygon fill="none" stroke="black" points="1374.75,-136.5 1374.75,-172.5 1555.5,-172.5 1555.5,-136.5 1374.75,-136.5"/>
<text text-anchor="middle" x="1384.62" y="-149.7" font-family="Times,serif" font-size="14.00"> </text>
<polyline fill="none" stroke="black" points="1394.5,-137 1394.5,-172.5"/>
<text text-anchor="middle" x="1434.38" y="-149.7" font-family="Times,serif" font-size="14.00">data 1.7627</text>
<polyline fill="none" stroke="black" points="1474.25,-137 1474.25,-172.5"/>
<text text-anchor="middle" x="1514.88" y="-149.7" font-family="Times,serif" font-size="14.00">grad 0.2500</text>
</g>
<!-- 4897305808exp -->
<g id="node13" class="node">
<title>4897305808exp</title>
<ellipse fill="none" stroke="black" cx="1618.5" cy="-154.5" rx="27" ry="18"/>
<text text-anchor="middle" x="1618.5" y="-149.45" font-family="Times,serif" font-size="14.00">exp</text>
</g>
<!-- 4897307152&#45;&gt;4897305808exp -->
<g id="edge24" class="edge">
<title>4897307152&#45;&gt;4897305808exp</title>
<path fill="none" stroke="black" d="M1555.93,-154.5C1564.27,-154.5 1572.37,-154.5 1579.81,-154.5"/>
<polygon fill="black" stroke="black" points="1579.75,-158 1589.75,-154.5 1579.75,-151 1579.75,-158"/>
</g>
<!-- 4897307152* -->
<g id="node4" class="node">
<title>4897307152*</title>
<ellipse fill="none" stroke="black" cx="1311.75" cy="-154.5" rx="27" ry="18"/>
<text text-anchor="middle" x="1311.75" y="-149.45" font-family="Times,serif" font-size="14.00">*</text>
</g>
<!-- 4897307152*&#45;&gt;4897307152 -->
<g id="edge2" class="edge">
<title>4897307152*&#45;&gt;4897307152</title>
<path fill="none" stroke="black" d="M1339.12,-154.5C1346.26,-154.5 1354.45,-154.5 1363.14,-154.5"/>
<polygon fill="black" stroke="black" points="1362.86,-158 1372.86,-154.5 1362.86,-151 1362.86,-158"/>
</g>
<!-- 4897305616 -->
<g id="node5" class="node">
<title>4897305616</title>
<polygon fill="none" stroke="black" points="2.25,-165.5 2.25,-201.5 195.75,-201.5 195.75,-165.5 2.25,-165.5"/>
<text text-anchor="middle" x="18.5" y="-178.7" font-family="Times,serif" font-size="14.00">w2</text>
<polyline fill="none" stroke="black" points="34.75,-166 34.75,-201.5"/>
<text text-anchor="middle" x="74.62" y="-178.7" font-family="Times,serif" font-size="14.00">data 1.0000</text>
<polyline fill="none" stroke="black" points="114.5,-166 114.5,-201.5"/>
<text text-anchor="middle" x="155.12" y="-178.7" font-family="Times,serif" font-size="14.00">grad 0.0000</text>
</g>
<!-- 4897300816* -->
<g id="node21" class="node">
<title>4897300816*</title>
<ellipse fill="none" stroke="black" cx="261" cy="-128.5" rx="27" ry="18"/>
<text text-anchor="middle" x="261" y="-123.45" font-family="Times,serif" font-size="14.00">*</text>
</g>
<!-- 4897305616&#45;&gt;4897300816* -->
<g id="edge13" class="edge">
<title>4897305616&#45;&gt;4897300816*</title>
<path fill="none" stroke="black" d="M172.12,-165.01C180.9,-162.35 189.7,-159.5 198,-156.5 208.09,-152.86 218.82,-148.27 228.47,-143.88"/>
<polygon fill="black" stroke="black" points="229.86,-147.09 237.45,-139.69 226.9,-140.75 229.86,-147.09"/>
</g>
<!-- 4897299040 -->
<g id="node6" class="node">
<title>4897299040</title>
<polygon fill="none" stroke="black" points="3.75,-110.5 3.75,-146.5 194.25,-146.5 194.25,-110.5 3.75,-110.5"/>
<text text-anchor="middle" x="18.5" y="-123.7" font-family="Times,serif" font-size="14.00">x2</text>
<polyline fill="none" stroke="black" points="33.25,-111 33.25,-146.5"/>
<text text-anchor="middle" x="73.12" y="-123.7" font-family="Times,serif" font-size="14.00">data 0.0000</text>
<polyline fill="none" stroke="black" points="113,-111 113,-146.5"/>
<text text-anchor="middle" x="153.62" y="-123.7" font-family="Times,serif" font-size="14.00">grad 0.5000</text>
</g>
<!-- 4897299040&#45;&gt;4897300816* -->
<g id="edge27" class="edge">
<title>4897299040&#45;&gt;4897300816*</title>
<path fill="none" stroke="black" d="M194.46,-128.5C204.21,-128.5 213.66,-128.5 222.21,-128.5"/>
<polygon fill="black" stroke="black" points="222.12,-132 232.12,-128.5 222.12,-125 222.12,-132"/>
</g>
<!-- 4897304704 -->
<g id="node7" class="node">
<title>4897304704</title>
<polygon fill="none" stroke="black" points="1065,-109.5 1065,-145.5 1248.75,-145.5 1248.75,-109.5 1065,-109.5"/>
<text text-anchor="middle" x="1076.38" y="-122.7" font-family="Times,serif" font-size="14.00">n</text>
<polyline fill="none" stroke="black" points="1087.75,-110 1087.75,-145.5"/>
<text text-anchor="middle" x="1127.62" y="-122.7" font-family="Times,serif" font-size="14.00">data 0.8814</text>
<polyline fill="none" stroke="black" points="1167.5,-110 1167.5,-145.5"/>
<text text-anchor="middle" x="1208.12" y="-122.7" font-family="Times,serif" font-size="14.00">grad 0.5000</text>
</g>
<!-- 4897304704&#45;&gt;4897307152* -->
<g id="edge23" class="edge">
<title>4897304704&#45;&gt;4897307152*</title>
<path fill="none" stroke="black" d="M1249.01,-143.6C1257.84,-145.16 1266.4,-146.67 1274.19,-148.04"/>
<polygon fill="black" stroke="black" points="1273.42,-151.46 1283.88,-149.75 1274.64,-144.57 1273.42,-151.46"/>
</g>
<!-- 4897304704+ -->
<g id="node8" class="node">
<title>4897304704+</title>
<ellipse fill="none" stroke="black" cx="1002" cy="-127.5" rx="27" ry="18"/>
<text text-anchor="middle" x="1002" y="-122.45" font-family="Times,serif" font-size="14.00">+</text>
</g>
<!-- 4897304704+&#45;&gt;4897304704 -->
<g id="edge3" class="edge">
<title>4897304704+&#45;&gt;4897304704</title>
<path fill="none" stroke="black" d="M1029.28,-127.5C1036.42,-127.5 1044.61,-127.5 1053.32,-127.5"/>
<polygon fill="black" stroke="black" points="1053.06,-131 1063.06,-127.5 1053.06,-124 1053.06,-131"/>
</g>
<!-- 4897303168 -->
<g id="node9" class="node">
<title>4897303168</title>
<polygon fill="none" stroke="black" points="668.25,-82.5 668.25,-118.5 939,-118.5 939,-82.5 668.25,-82.5"/>
<text text-anchor="middle" x="720.88" y="-95.7" font-family="Times,serif" font-size="14.00">x1*w1 + x2*w2</text>
<polyline fill="none" stroke="black" points="773.5,-83 773.5,-118.5"/>
<text text-anchor="middle" x="815.62" y="-95.7" font-family="Times,serif" font-size="14.00">data &#45;6.0000</text>
<polyline fill="none" stroke="black" points="857.75,-83 857.75,-118.5"/>
<text text-anchor="middle" x="898.38" y="-95.7" font-family="Times,serif" font-size="14.00">grad 0.5000</text>
</g>
<!-- 4897303168&#45;&gt;4897304704+ -->
<g id="edge11" class="edge">
<title>4897303168&#45;&gt;4897304704+</title>
<path fill="none" stroke="black" d="M939.14,-118.99C947.95,-120.21 956.31,-121.36 963.87,-122.4"/>
<polygon fill="black" stroke="black" points="963.16,-125.83 973.55,-123.73 964.12,-118.9 963.16,-125.83"/>
</g>
<!-- 4897303168+&#45;&gt;4897303168 -->
<g id="edge4" class="edge">
<title>4897303168+&#45;&gt;4897303168</title>
<path fill="none" stroke="black" d="M632.73,-100.5C639.73,-100.5 647.79,-100.5 656.52,-100.5"/>
<polygon fill="black" stroke="black" points="656.39,-104 666.39,-100.5 656.39,-97 656.39,-104"/>
</g>
<!-- 4897302496 -->
<g id="node11" class="node">
<title>4897302496</title>
<polygon fill="none" stroke="black" points="1.5,-55.5 1.5,-91.5 196.5,-91.5 196.5,-55.5 1.5,-55.5"/>
<text text-anchor="middle" x="16.25" y="-68.7" font-family="Times,serif" font-size="14.00">x1</text>
<polyline fill="none" stroke="black" points="31,-56 31,-91.5"/>
<text text-anchor="middle" x="70.88" y="-68.7" font-family="Times,serif" font-size="14.00">data 2.0000</text>
<polyline fill="none" stroke="black" points="110.75,-56 110.75,-91.5"/>
<text text-anchor="middle" x="153.62" y="-68.7" font-family="Times,serif" font-size="14.00">grad &#45;1.5000</text>
</g>
<!-- 4897302496&#45;&gt;4897300480* -->
<g id="edge19" class="edge">
<title>4897302496&#45;&gt;4897300480*</title>
<path fill="none" stroke="black" d="M196.76,-73.5C205.77,-73.5 214.47,-73.5 222.4,-73.5"/>
<polygon fill="black" stroke="black" points="222.25,-77 232.25,-73.5 222.25,-70 222.25,-77"/>
</g>
<!-- 4897305808 -->
<g id="node12" class="node">
<title>4897305808</title>
<polygon fill="none" stroke="black" points="1683.75,-136.5 1683.75,-172.5 1864.5,-172.5 1864.5,-136.5 1683.75,-136.5"/>
<text text-anchor="middle" x="1693.62" y="-149.7" font-family="Times,serif" font-size="14.00"> </text>
<polyline fill="none" stroke="black" points="1703.5,-137 1703.5,-172.5"/>
<text text-anchor="middle" x="1743.38" y="-149.7" font-family="Times,serif" font-size="14.00">data 5.8284</text>
<polyline fill="none" stroke="black" points="1783.25,-137 1783.25,-172.5"/>
<text text-anchor="middle" x="1823.88" y="-149.7" font-family="Times,serif" font-size="14.00">grad 0.0429</text>
</g>
<!-- 4897304848+ -->
<g id="node18" class="node">
<title>4897304848+</title>
<ellipse fill="none" stroke="black" cx="1929.75" cy="-126.5" rx="27" ry="18"/>
<text text-anchor="middle" x="1929.75" y="-121.45" font-family="Times,serif" font-size="14.00">+</text>
</g>
<!-- 4897305808&#45;&gt;4897304848+ -->
<g id="edge17" class="edge">
<title>4897305808&#45;&gt;4897304848+</title>
<path fill="none" stroke="black" d="M1864.93,-138.13C1874.48,-136.39 1883.76,-134.7 1892.14,-133.17"/>
<polygon fill="black" stroke="black" points="1892.64,-136.64 1901.85,-131.4 1891.39,-129.75 1892.64,-136.64"/>
</g>
<!-- 4897306096+ -->
<g id="node28" class="node">
<title>4897306096+</title>
<ellipse fill="none" stroke="black" cx="1929.75" cy="-181.5" rx="27" ry="18"/>
<text text-anchor="middle" x="1929.75" y="-176.45" font-family="Times,serif" font-size="14.00">+</text>
</g>
<!-- 4897305808&#45;&gt;4897306096+ -->
<g id="edge14" class="edge">
<title>4897305808&#45;&gt;4897306096+</title>
<path fill="none" stroke="black" d="M1864.93,-170.28C1874.48,-171.96 1883.76,-173.59 1892.14,-175.07"/>
<polygon fill="black" stroke="black" points="1891.39,-178.49 1901.85,-176.77 1892.61,-171.59 1891.39,-178.49"/>
</g>
<!-- 4897305808exp&#45;&gt;4897305808 -->
<g id="edge5" class="edge">
<title>4897305808exp&#45;&gt;4897305808</title>
<path fill="none" stroke="black" d="M1645.91,-154.5C1653.62,-154.5 1662.54,-154.5 1672.01,-154.5"/>
<polygon fill="black" stroke="black" points="1671.82,-158 1681.82,-154.5 1671.82,-151 1671.82,-158"/>
</g>
<!-- 4897304800 -->
<g id="node14" class="node">
<title>4897304800</title>
<polygon fill="none" stroke="black" points="1681.5,-81.5 1681.5,-117.5 1866.75,-117.5 1866.75,-81.5 1681.5,-81.5"/>
<text text-anchor="middle" x="1691.38" y="-94.7" font-family="Times,serif" font-size="14.00"> </text>
<polyline fill="none" stroke="black" points="1701.25,-82 1701.25,-117.5"/>
<text text-anchor="middle" x="1741.12" y="-94.7" font-family="Times,serif" font-size="14.00">data 1.0000</text>
<polyline fill="none" stroke="black" points="1781,-82 1781,-117.5"/>
<text text-anchor="middle" x="1823.88" y="-94.7" font-family="Times,serif" font-size="14.00">grad &#45;0.1036</text>
</g>
<!-- 4897304800&#45;&gt;4897304848+ -->
<g id="edge22" class="edge">
<title>4897304800&#45;&gt;4897304848+</title>
<path fill="none" stroke="black" d="M1867.15,-115.67C1875.89,-117.21 1884.36,-118.7 1892.08,-120.05"/>
<polygon fill="black" stroke="black" points="1891.2,-123.45 1901.66,-121.74 1892.41,-116.56 1891.2,-123.45"/>
</g>
<!-- 4897304272 -->
<g id="node15" class="node">
<title>4897304272</title>
<polygon fill="none" stroke="black" points="1681.5,-191.5 1681.5,-227.5 1866.75,-227.5 1866.75,-191.5 1681.5,-191.5"/>
<text text-anchor="middle" x="1691.38" y="-204.7" font-family="Times,serif" font-size="14.00"> </text>
<polyline fill="none" stroke="black" points="1701.25,-192 1701.25,-227.5"/>
<text text-anchor="middle" x="1743.38" y="-204.7" font-family="Times,serif" font-size="14.00">data &#45;1.0000</text>
<polyline fill="none" stroke="black" points="1785.5,-192 1785.5,-227.5"/>
<text text-anchor="middle" x="1826.12" y="-204.7" font-family="Times,serif" font-size="14.00">grad 0.1464</text>
</g>
<!-- 4897304272&#45;&gt;4897306096+ -->
<g id="edge15" class="edge">
<title>4897304272&#45;&gt;4897306096+</title>
<path fill="none" stroke="black" d="M1867.15,-192.73C1875.89,-191.13 1884.36,-189.59 1892.08,-188.18"/>
<polygon fill="black" stroke="black" points="1892.45,-191.67 1901.66,-186.44 1891.19,-184.79 1892.45,-191.67"/>
</g>
<!-- 4897305568 -->
<g id="node16" class="node">
<title>4897305568</title>
<polygon fill="none" stroke="black" points="711.75,-137.5 711.75,-173.5 895.5,-173.5 895.5,-137.5 711.75,-137.5"/>
<text text-anchor="middle" x="723.12" y="-150.7" font-family="Times,serif" font-size="14.00">b</text>
<polyline fill="none" stroke="black" points="734.5,-138 734.5,-173.5"/>
<text text-anchor="middle" x="774.38" y="-150.7" font-family="Times,serif" font-size="14.00">data 6.8814</text>
<polyline fill="none" stroke="black" points="814.25,-138 814.25,-173.5"/>
<text text-anchor="middle" x="854.88" y="-150.7" font-family="Times,serif" font-size="14.00">grad 0.5000</text>
</g>
<!-- 4897305568&#45;&gt;4897304704+ -->
<g id="edge16" class="edge">
<title>4897305568&#45;&gt;4897304704+</title>
<path fill="none" stroke="black" d="M895.91,-142.48C919.97,-139.05 944.58,-135.55 963.93,-132.79"/>
<polygon fill="black" stroke="black" points="964.34,-136.26 973.75,-131.39 963.35,-129.33 964.34,-136.26"/>
</g>
<!-- 4897304848 -->
<g id="node17" class="node">
<title>4897304848</title>
<polygon fill="none" stroke="black" points="1992.75,-108.5 1992.75,-144.5 2178,-144.5 2178,-108.5 1992.75,-108.5"/>
<text text-anchor="middle" x="2002.62" y="-121.7" font-family="Times,serif" font-size="14.00"> </text>
<polyline fill="none" stroke="black" points="2012.5,-109 2012.5,-144.5"/>
<text text-anchor="middle" x="2052.38" y="-121.7" font-family="Times,serif" font-size="14.00">data 6.8284</text>
<polyline fill="none" stroke="black" points="2092.25,-109 2092.25,-144.5"/>
<text text-anchor="middle" x="2135.12" y="-121.7" font-family="Times,serif" font-size="14.00">grad &#45;0.1036</text>
</g>
<!-- 4897304992**&#45;1 -->
<g id="node23" class="node">
<title>4897304992**&#45;1</title>
<ellipse fill="none" stroke="black" cx="2304.38" cy="-126.5" rx="27.81" ry="18"/>
<text text-anchor="middle" x="2304.38" y="-121.45" font-family="Times,serif" font-size="14.00">**&#45;1</text>
</g>
<!-- 4897304848&#45;&gt;4897304992**&#45;1 -->
<g id="edge21" class="edge">
<title>4897304848&#45;&gt;4897304992**&#45;1</title>
<path fill="none" stroke="black" d="M2178.4,-126.5C2208.64,-126.5 2240.63,-126.5 2264.67,-126.5"/>
<polygon fill="black" stroke="black" points="2264.62,-130 2274.62,-126.5 2264.62,-123 2264.62,-130"/>
</g>
<!-- 4897304848+&#45;&gt;4897304848 -->
<g id="edge6" class="edge">
<title>4897304848+&#45;&gt;4897304848</title>
<path fill="none" stroke="black" d="M1957.16,-126.5C1964.2,-126.5 1972.25,-126.5 1980.8,-126.5"/>
<polygon fill="black" stroke="black" points="1980.79,-130 1990.79,-126.5 1980.79,-123 1980.79,-130"/>
</g>
<!-- 4897307104 -->
<g id="node19" class="node">
<title>4897307104</title>
<polygon fill="none" stroke="black" points="1066.5,-164.5 1066.5,-200.5 1247.25,-200.5 1247.25,-164.5 1066.5,-164.5"/>
<text text-anchor="middle" x="1076.38" y="-177.7" font-family="Times,serif" font-size="14.00"> </text>
<polyline fill="none" stroke="black" points="1086.25,-165 1086.25,-200.5"/>
<text text-anchor="middle" x="1126.12" y="-177.7" font-family="Times,serif" font-size="14.00">data 2.0000</text>
<polyline fill="none" stroke="black" points="1166,-165 1166,-200.5"/>
<text text-anchor="middle" x="1206.62" y="-177.7" font-family="Times,serif" font-size="14.00">grad 0.2203</text>
</g>
<!-- 4897307104&#45;&gt;4897307152* -->
<g id="edge20" class="edge">
<title>4897307104&#45;&gt;4897307152*</title>
<path fill="none" stroke="black" d="M1247.69,-166.05C1256.94,-164.35 1265.93,-162.71 1274.08,-161.22"/>
<polygon fill="black" stroke="black" points="1274.67,-164.67 1283.87,-159.42 1273.41,-157.78 1274.67,-164.67"/>
</g>
<!-- 4897300816 -->
<g id="node20" class="node">
<title>4897300816</title>
<polygon fill="none" stroke="black" points="326.25,-110.5 326.25,-146.5 540,-146.5 540,-110.5 326.25,-110.5"/>
<text text-anchor="middle" x="352.62" y="-123.7" font-family="Times,serif" font-size="14.00">x2*w2</text>
<polyline fill="none" stroke="black" points="379,-111 379,-146.5"/>
<text text-anchor="middle" x="418.88" y="-123.7" font-family="Times,serif" font-size="14.00">data 0.0000</text>
<polyline fill="none" stroke="black" points="458.75,-111 458.75,-146.5"/>
<text text-anchor="middle" x="499.38" y="-123.7" font-family="Times,serif" font-size="14.00">grad 0.5000</text>
</g>
<!-- 4897300816&#45;&gt;4897303168+ -->
<g id="edge28" class="edge">
<title>4897300816&#45;&gt;4897303168+</title>
<path fill="none" stroke="black" d="M540.42,-111.01C549.89,-109.45 559,-107.95 567.21,-106.6"/>
<polygon fill="black" stroke="black" points="567.75,-110.05 577.05,-104.98 566.62,-103.15 567.75,-110.05"/>
</g>
<!-- 4897300816*&#45;&gt;4897300816 -->
<g id="edge7" class="edge">
<title>4897300816*&#45;&gt;4897300816</title>
<path fill="none" stroke="black" d="M288.21,-128.5C296,-128.5 305.08,-128.5 314.82,-128.5"/>
<polygon fill="black" stroke="black" points="314.55,-132 324.55,-128.5 314.55,-125 314.55,-132"/>
</g>
<!-- 4897304992 -->
<g id="node22" class="node">
<title>4897304992</title>
<polygon fill="none" stroke="black" points="2430.75,-112.5 2430.75,-148.5 2611.5,-148.5 2611.5,-112.5 2430.75,-112.5"/>
<text text-anchor="middle" x="2440.62" y="-125.7" font-family="Times,serif" font-size="14.00"> </text>
<polyline fill="none" stroke="black" points="2450.5,-113 2450.5,-148.5"/>
<text text-anchor="middle" x="2490.38" y="-125.7" font-family="Times,serif" font-size="14.00">data 0.1464</text>
<polyline fill="none" stroke="black" points="2530.25,-113 2530.25,-148.5"/>
<text text-anchor="middle" x="2570.88" y="-125.7" font-family="Times,serif" font-size="14.00">grad 4.8284</text>
</g>
<!-- 4897308640* -->
<g id="node26" class="node">
<title>4897308640*</title>
<ellipse fill="none" stroke="black" cx="2674.5" cy="-153.5" rx="27" ry="18"/>
<text text-anchor="middle" x="2674.5" y="-148.45" font-family="Times,serif" font-size="14.00">*</text>
</g>
<!-- 4897304992&#45;&gt;4897308640* -->
<g id="edge26" class="edge">
<title>4897304992&#45;&gt;4897308640*</title>
<path fill="none" stroke="black" d="M2611.93,-144.15C2620.54,-145.45 2628.89,-146.72 2636.53,-147.88"/>
<polygon fill="black" stroke="black" points="2635.96,-151.34 2646.37,-149.38 2637.01,-144.41 2635.96,-151.34"/>
</g>
<!-- 4897304992**&#45;1&#45;&gt;4897304992 -->
<g id="edge8" class="edge">
<title>4897304992**&#45;1&#45;&gt;4897304992</title>
<path fill="none" stroke="black" d="M2332.57,-127.01C2354.68,-127.42 2387.33,-128.03 2419.22,-128.62"/>
<polygon fill="black" stroke="black" points="2418.87,-132.11 2428.93,-128.8 2419,-125.12 2418.87,-132.11"/>
</g>
<!-- 4897301968 -->
<g id="node24" class="node">
<title>4897301968</title>
<polygon fill="none" stroke="black" points="0,-0.5 0,-36.5 198,-36.5 198,-0.5 0,-0.5"/>
<text text-anchor="middle" x="16.25" y="-13.7" font-family="Times,serif" font-size="14.00">w1</text>
<polyline fill="none" stroke="black" points="32.5,-1 32.5,-36.5"/>
<text text-anchor="middle" x="74.62" y="-13.7" font-family="Times,serif" font-size="14.00">data &#45;3.0000</text>
<polyline fill="none" stroke="black" points="116.75,-1 116.75,-36.5"/>
<text text-anchor="middle" x="157.38" y="-13.7" font-family="Times,serif" font-size="14.00">grad 1.0000</text>
</g>
<!-- 4897301968&#45;&gt;4897300480* -->
<g id="edge18" class="edge">
<title>4897301968&#45;&gt;4897300480*</title>
<path fill="none" stroke="black" d="M168.91,-36.94C178.74,-39.93 188.67,-43.15 198,-46.5 207.96,-50.07 218.58,-54.47 228.18,-58.68"/>
<polygon fill="black" stroke="black" points="226.54,-61.78 237.1,-62.67 229.4,-55.39 226.54,-61.78"/>
</g>
<!-- 4897308640 -->
<g id="node25" class="node">
<title>4897308640</title>
<polygon fill="none" stroke="black" points="2737.5,-135.5 2737.5,-171.5 2921.25,-171.5 2921.25,-135.5 2737.5,-135.5"/>
<text text-anchor="middle" x="2748.88" y="-148.7" font-family="Times,serif" font-size="14.00">o</text>
<polyline fill="none" stroke="black" points="2760.25,-136 2760.25,-171.5"/>
<text text-anchor="middle" x="2800.12" y="-148.7" font-family="Times,serif" font-size="14.00">data 0.7071</text>
<polyline fill="none" stroke="black" points="2840,-136 2840,-171.5"/>
<text text-anchor="middle" x="2880.62" y="-148.7" font-family="Times,serif" font-size="14.00">grad 1.0000</text>
</g>
<!-- 4897308640*&#45;&gt;4897308640 -->
<g id="edge9" class="edge">
<title>4897308640*&#45;&gt;4897308640</title>
<path fill="none" stroke="black" d="M2701.78,-153.5C2708.92,-153.5 2717.11,-153.5 2725.82,-153.5"/>
<polygon fill="black" stroke="black" points="2725.56,-157 2735.56,-153.5 2725.56,-150 2725.56,-157"/>
</g>
<!-- 4897306096 -->
<g id="node27" class="node">
<title>4897306096</title>
<polygon fill="none" stroke="black" points="2214,-163.5 2214,-199.5 2394.75,-199.5 2394.75,-163.5 2214,-163.5"/>
<text text-anchor="middle" x="2223.88" y="-176.7" font-family="Times,serif" font-size="14.00"> </text>
<polyline fill="none" stroke="black" points="2233.75,-164 2233.75,-199.5"/>
<text text-anchor="middle" x="2273.62" y="-176.7" font-family="Times,serif" font-size="14.00">data 4.8284</text>
<polyline fill="none" stroke="black" points="2313.5,-164 2313.5,-199.5"/>
<text text-anchor="middle" x="2354.12" y="-176.7" font-family="Times,serif" font-size="14.00">grad 0.1464</text>
</g>
<!-- 4897306096&#45;&gt;4897308640* -->
<g id="edge25" class="edge">
<title>4897306096&#45;&gt;4897308640*</title>
<path fill="none" stroke="black" d="M2395.13,-174.89C2456.15,-170.36 2538.7,-164.17 2611.5,-158.5 2619.38,-157.89 2627.83,-157.21 2635.87,-156.57"/>
<polygon fill="black" stroke="black" points="2636.06,-160.06 2645.75,-155.77 2635.5,-153.09 2636.06,-160.06"/>
</g>
<!-- 4897306096+&#45;&gt;4897306096 -->
<g id="edge10" class="edge">
<title>4897306096+&#45;&gt;4897306096</title>
<path fill="none" stroke="black" d="M1957.25,-181.5C2007.51,-181.5 2119.07,-181.5 2202.03,-181.5"/>
<polygon fill="black" stroke="black" points="2202.02,-185 2212.02,-181.5 2202.02,-178 2202.02,-185"/>
</g>
</g>
</svg>
