<?xml version="1.0" encoding="UTF-8" standalone="no"?>
<!DOCTYPE svg PUBLIC "-//W3C//DTD SVG 1.1//EN"
 "http://www.w3.org/Graphics/SVG/1.1/DTD/svg11.dtd">
<!-- Generated by graphviz version 11.0.0 (20240428.1522)
 -->
<!-- Pages: 1 -->
<svg width="1151pt" height="156pt"
 viewBox="0.00 0.00 1151.00 156.00" xmlns="http://www.w3.org/2000/svg" xmlns:xlink="http://www.w3.org/1999/xlink">
<g id="graph0" class="graph" transform="scale(1 1) rotate(0) translate(4 152)">
<polygon fill="white" stroke="none" points="-4,4 -4,-152 1147,-152 1147,4 -4,4"/>
<!-- 4831534672 -->
<g id="node1" class="node">
<title>4831534672</title>
<polygon fill="none" stroke="black" points="0,-111.5 0,-147.5 192.75,-147.5 192.75,-111.5 0,-111.5"/>
<text text-anchor="middle" x="11.38" y="-124.7" font-family="Times,serif" font-size="14.00">b</text>
<polyline fill="none" stroke="black" points="22.75,-112 22.75,-147.5"/>
<text text-anchor="middle" x="64.88" y="-124.7" font-family="Times,serif" font-size="14.00">data &#45;3.0000</text>
<polyline fill="none" stroke="black" points="107,-112 107,-147.5"/>
<text text-anchor="middle" x="149.88" y="-124.7" font-family="Times,serif" font-size="14.00">grad &#45;4.0000</text>
</g>
<!-- 5063685776* -->
<g id="node8" class="node">
<title>5063685776*</title>
<ellipse fill="none" stroke="black" cx="255.75" cy="-101.5" rx="27" ry="18"/>
<text text-anchor="middle" x="255.75" y="-96.45" font-family="Times,serif" font-size="14.00">*</text>
</g>
<!-- 4831534672&#45;&gt;5063685776* -->
<g id="edge5" class="edge">
<title>4831534672&#45;&gt;5063685776*</title>
<path fill="none" stroke="black" d="M193,-112.49C201.81,-110.92 210.32,-109.41 218.06,-108.03"/>
<polygon fill="black" stroke="black" points="218.43,-111.52 227.66,-106.32 217.21,-104.62 218.43,-111.52"/>
</g>
<!-- 5063679632 -->
<g id="node2" class="node">
<title>5063679632</title>
<polygon fill="none" stroke="black" points="953.25,-27.5 953.25,-63.5 1143,-63.5 1143,-27.5 953.25,-27.5"/>
<text text-anchor="middle" x="965.38" y="-40.7" font-family="Times,serif" font-size="14.00">L</text>
<polyline fill="none" stroke="black" points="977.5,-28 977.5,-63.5"/>
<text text-anchor="middle" x="1019.62" y="-40.7" font-family="Times,serif" font-size="14.00">data &#45;8.0000</text>
<polyline fill="none" stroke="black" points="1061.75,-28 1061.75,-63.5"/>
<text text-anchor="middle" x="1102.38" y="-40.7" font-family="Times,serif" font-size="14.00">grad 1.0000</text>
</g>
<!-- 5063679632* -->
<g id="node3" class="node">
<title>5063679632*</title>
<ellipse fill="none" stroke="black" cx="890.25" cy="-45.5" rx="27" ry="18"/>
<text text-anchor="middle" x="890.25" y="-40.45" font-family="Times,serif" font-size="14.00">*</text>
</g>
<!-- 5063679632*&#45;&gt;5063679632 -->
<g id="edge1" class="edge">
<title>5063679632*&#45;&gt;5063679632</title>
<path fill="none" stroke="black" d="M917.69,-45.5C924.84,-45.5 933.03,-45.5 941.74,-45.5"/>
<polygon fill="black" stroke="black" points="941.51,-49 951.51,-45.5 941.51,-42 941.51,-49"/>
</g>
<!-- 5063681680 -->
<g id="node4" class="node">
<title>5063681680</title>
<polygon fill="none" stroke="black" points="639,-55.5 639,-91.5 827.25,-91.5 827.25,-55.5 639,-55.5"/>
<text text-anchor="middle" x="650.38" y="-68.7" font-family="Times,serif" font-size="14.00">d</text>
<polyline fill="none" stroke="black" points="661.75,-56 661.75,-91.5"/>
<text text-anchor="middle" x="701.62" y="-68.7" font-family="Times,serif" font-size="14.00">data 4.0000</text>
<polyline fill="none" stroke="black" points="741.5,-56 741.5,-91.5"/>
<text text-anchor="middle" x="784.38" y="-68.7" font-family="Times,serif" font-size="14.00">grad &#45;2.0000</text>
</g>
<!-- 5063681680&#45;&gt;5063679632* -->
<g id="edge8" class="edge">
<title>5063681680&#45;&gt;5063679632*</title>
<path fill="none" stroke="black" d="M827.49,-56.65C836.36,-55.05 844.93,-53.5 852.73,-52.09"/>
<polygon fill="black" stroke="black" points="853.2,-55.56 862.42,-50.34 851.95,-48.68 853.2,-55.56"/>
</g>
<!-- 5063681680+ -->
<g id="node5" class="node">
<title>5063681680+</title>
<ellipse fill="none" stroke="black" cx="576" cy="-73.5" rx="27" ry="18"/>
<text text-anchor="middle" x="576" y="-68.45" font-family="Times,serif" font-size="14.00">+</text>
</g>
<!-- 5063681680+&#45;&gt;5063681680 -->
<g id="edge2" class="edge">
<title>5063681680+&#45;&gt;5063681680</title>
<path fill="none" stroke="black" d="M603.31,-73.5C610.49,-73.5 618.72,-73.5 627.47,-73.5"/>
<polygon fill="black" stroke="black" points="627.29,-77 637.29,-73.5 627.29,-70 627.29,-77"/>
</g>
<!-- 5063444112 -->
<g id="node6" class="node">
<title>5063444112</title>
<polygon fill="none" stroke="black" points="4.88,-56.5 4.88,-92.5 187.88,-92.5 187.88,-56.5 4.88,-56.5"/>
<text text-anchor="middle" x="15.88" y="-69.7" font-family="Times,serif" font-size="14.00">a</text>
<polyline fill="none" stroke="black" points="26.88,-57 26.88,-92.5"/>
<text text-anchor="middle" x="66.75" y="-69.7" font-family="Times,serif" font-size="14.00">data 2.0000</text>
<polyline fill="none" stroke="black" points="106.62,-57 106.62,-92.5"/>
<text text-anchor="middle" x="147.25" y="-69.7" font-family="Times,serif" font-size="14.00">grad 6.0000</text>
</g>
<!-- 5063444112&#45;&gt;5063685776* -->
<g id="edge6" class="edge">
<title>5063444112&#45;&gt;5063685776*</title>
<path fill="none" stroke="black" d="M188.01,-90.05C198.46,-91.84 208.62,-93.59 217.74,-95.15"/>
<polygon fill="black" stroke="black" points="217.11,-98.59 227.56,-96.84 218.3,-91.69 217.11,-98.59"/>
</g>
<!-- 5063685776 -->
<g id="node7" class="node">
<title>5063685776</title>
<polygon fill="none" stroke="black" points="319.88,-83.5 319.88,-119.5 511.88,-119.5 511.88,-83.5 319.88,-83.5"/>
<text text-anchor="middle" x="330.88" y="-96.7" font-family="Times,serif" font-size="14.00">e</text>
<polyline fill="none" stroke="black" points="341.88,-84 341.88,-119.5"/>
<text text-anchor="middle" x="384" y="-96.7" font-family="Times,serif" font-size="14.00">data &#45;6.0000</text>
<polyline fill="none" stroke="black" points="426.12,-84 426.12,-119.5"/>
<text text-anchor="middle" x="469" y="-96.7" font-family="Times,serif" font-size="14.00">grad &#45;2.0000</text>
</g>
<!-- 5063685776&#45;&gt;5063681680+ -->
<g id="edge9" class="edge">
<title>5063685776&#45;&gt;5063681680+</title>
<path fill="none" stroke="black" d="M512.05,-84.65C521.28,-83.01 530.2,-81.43 538.29,-80"/>
<polygon fill="black" stroke="black" points="538.74,-83.47 547.98,-78.28 537.52,-76.58 538.74,-83.47"/>
</g>
<!-- 5063685776*&#45;&gt;5063685776 -->
<g id="edge3" class="edge">
<title>5063685776*&#45;&gt;5063685776</title>
<path fill="none" stroke="black" d="M283.22,-101.5C290.59,-101.5 299.09,-101.5 308.13,-101.5"/>
<polygon fill="black" stroke="black" points="307.89,-105 317.89,-101.5 307.89,-98 307.89,-105"/>
</g>
<!-- 5063684816 -->
<g id="node9" class="node">
<title>5063684816</title>
<polygon fill="none" stroke="black" points="640.12,-0.5 640.12,-36.5 826.12,-36.5 826.12,-0.5 640.12,-0.5"/>
<text text-anchor="middle" x="650.38" y="-13.7" font-family="Times,serif" font-size="14.00">f</text>
<polyline fill="none" stroke="black" points="660.62,-1 660.62,-36.5"/>
<text text-anchor="middle" x="702.75" y="-13.7" font-family="Times,serif" font-size="14.00">data &#45;2.0000</text>
<polyline fill="none" stroke="black" points="744.88,-1 744.88,-36.5"/>
<text text-anchor="middle" x="785.5" y="-13.7" font-family="Times,serif" font-size="14.00">grad 4.0000</text>
</g>
<!-- 5063684816&#45;&gt;5063679632* -->
<g id="edge7" class="edge">
<title>5063684816&#45;&gt;5063679632*</title>
<path fill="none" stroke="black" d="M826.6,-34.6C835.76,-36.19 844.62,-37.73 852.67,-39.13"/>
<polygon fill="black" stroke="black" points="851.85,-42.54 862.3,-40.81 853.05,-35.65 851.85,-42.54"/>
</g>
<!-- 5063684496 -->
<g id="node10" class="node">
<title>5063684496</title>
<polygon fill="none" stroke="black" points="318.75,-28.5 318.75,-64.5 513,-64.5 513,-28.5 318.75,-28.5"/>
<text text-anchor="middle" x="329.75" y="-41.7" font-family="Times,serif" font-size="14.00">c</text>
<polyline fill="none" stroke="black" points="340.75,-29 340.75,-64.5"/>
<text text-anchor="middle" x="384" y="-41.7" font-family="Times,serif" font-size="14.00">data 10.0000</text>
<polyline fill="none" stroke="black" points="427.25,-29 427.25,-64.5"/>
<text text-anchor="middle" x="470.12" y="-41.7" font-family="Times,serif" font-size="14.00">grad &#45;2.0000</text>
</g>
<!-- 5063684496&#45;&gt;5063681680+ -->
<g id="edge4" class="edge">
<title>5063684496&#45;&gt;5063681680+</title>
<path fill="none" stroke="black" d="M513.41,-62.98C522.1,-64.47 530.5,-65.9 538.15,-67.21"/>
<polygon fill="black" stroke="black" points="537.55,-70.66 548,-68.89 538.73,-63.76 537.55,-70.66"/>
</g>
</g>
</svg>
