<?xml version="1.0" encoding="UTF-8" standalone="no"?>
<!DOCTYPE svg PUBLIC "-//W3C//DTD SVG 1.1//EN"
 "http://www.w3.org/Graphics/SVG/1.1/DTD/svg11.dtd">
<!-- Generated by graphviz version 11.0.0 (20240428.1522)
 -->
<!-- Pages: 1 -->
<svg width="1140pt" height="156pt"
 viewBox="0.00 0.00 1139.75 156.00" xmlns="http://www.w3.org/2000/svg" xmlns:xlink="http://www.w3.org/1999/xlink">
<g id="graph0" class="graph" transform="scale(1 1) rotate(0) translate(4 152)">
<polygon fill="white" stroke="none" points="-4,4 -4,-152 1135.75,-152 1135.75,4 -4,4"/>
<!-- 4831534672 -->
<g id="node1" class="node">
<title>4831534672</title>
<polygon fill="none" stroke="black" points="0,-111.5 0,-147.5 188.25,-147.5 188.25,-111.5 0,-111.5"/>
<text text-anchor="middle" x="11.38" y="-124.7" font-family="Times,serif" font-size="14.00">b</text>
<polyline fill="none" stroke="black" points="22.75,-112 22.75,-147.5"/>
<text text-anchor="middle" x="64.88" y="-124.7" font-family="Times,serif" font-size="14.00">data &#45;3.0000</text>
<polyline fill="none" stroke="black" points="107,-112 107,-147.5"/>
<text text-anchor="middle" x="147.62" y="-124.7" font-family="Times,serif" font-size="14.00">grad 0.0000</text>
</g>
<!-- 5063685776* -->
<g id="node8" class="node">
<title>5063685776*</title>
<ellipse fill="none" stroke="black" cx="251.25" cy="-101.5" rx="27" ry="18"/>
<text text-anchor="middle" x="251.25" y="-96.45" font-family="Times,serif" font-size="14.00">*</text>
</g>
<!-- 4831534672&#45;&gt;5063685776* -->
<g id="edge5" class="edge">
<title>4831534672&#45;&gt;5063685776*</title>
<path fill="none" stroke="black" d="M188.49,-112.65C197.36,-111.05 205.93,-109.5 213.73,-108.09"/>
<polygon fill="black" stroke="black" points="214.2,-111.56 223.42,-106.34 212.95,-104.68 214.2,-111.56"/>
</g>
<!-- 5063679632 -->
<g id="node2" class="node">
<title>5063679632</title>
<polygon fill="none" stroke="black" points="942,-27.5 942,-63.5 1131.75,-63.5 1131.75,-27.5 942,-27.5"/>
<text text-anchor="middle" x="954.12" y="-40.7" font-family="Times,serif" font-size="14.00">L</text>
<polyline fill="none" stroke="black" points="966.25,-28 966.25,-63.5"/>
<text text-anchor="middle" x="1008.38" y="-40.7" font-family="Times,serif" font-size="14.00">data &#45;8.0000</text>
<polyline fill="none" stroke="black" points="1050.5,-28 1050.5,-63.5"/>
<text text-anchor="middle" x="1091.12" y="-40.7" font-family="Times,serif" font-size="14.00">grad 0.0000</text>
</g>
<!-- 5063679632* -->
<g id="node3" class="node">
<title>5063679632*</title>
<ellipse fill="none" stroke="black" cx="879" cy="-45.5" rx="27" ry="18"/>
<text text-anchor="middle" x="879" y="-40.45" font-family="Times,serif" font-size="14.00">*</text>
</g>
<!-- 5063679632*&#45;&gt;5063679632 -->
<g id="edge1" class="edge">
<title>5063679632*&#45;&gt;5063679632</title>
<path fill="none" stroke="black" d="M906.44,-45.5C913.59,-45.5 921.78,-45.5 930.49,-45.5"/>
<polygon fill="black" stroke="black" points="930.26,-49 940.26,-45.5 930.26,-42 930.26,-49"/>
</g>
<!-- 5063681680 -->
<g id="node4" class="node">
<title>5063681680</title>
<polygon fill="none" stroke="black" points="631.12,-55.5 631.12,-91.5 814.88,-91.5 814.88,-55.5 631.12,-55.5"/>
<text text-anchor="middle" x="642.5" y="-68.7" font-family="Times,serif" font-size="14.00">d</text>
<polyline fill="none" stroke="black" points="653.88,-56 653.88,-91.5"/>
<text text-anchor="middle" x="693.75" y="-68.7" font-family="Times,serif" font-size="14.00">data 4.0000</text>
<polyline fill="none" stroke="black" points="733.62,-56 733.62,-91.5"/>
<text text-anchor="middle" x="774.25" y="-68.7" font-family="Times,serif" font-size="14.00">grad 0.0000</text>
</g>
<!-- 5063681680&#45;&gt;5063679632* -->
<g id="edge8" class="edge">
<title>5063681680&#45;&gt;5063679632*</title>
<path fill="none" stroke="black" d="M815.36,-56.89C824.5,-55.23 833.36,-53.62 841.4,-52.15"/>
<polygon fill="black" stroke="black" points="841.83,-55.63 851.04,-50.4 840.57,-48.75 841.83,-55.63"/>
</g>
<!-- 5063681680+ -->
<g id="node5" class="node">
<title>5063681680+</title>
<ellipse fill="none" stroke="black" cx="567" cy="-73.5" rx="27" ry="18"/>
<text text-anchor="middle" x="567" y="-68.45" font-family="Times,serif" font-size="14.00">+</text>
</g>
<!-- 5063681680+&#45;&gt;5063681680 -->
<g id="edge2" class="edge">
<title>5063681680+&#45;&gt;5063681680</title>
<path fill="none" stroke="black" d="M594.47,-73.5C601.87,-73.5 610.38,-73.5 619.43,-73.5"/>
<polygon fill="black" stroke="black" points="619.17,-77 629.17,-73.5 619.17,-70 619.17,-77"/>
</g>
<!-- 5063444112 -->
<g id="node6" class="node">
<title>5063444112</title>
<polygon fill="none" stroke="black" points="2.62,-56.5 2.62,-92.5 185.62,-92.5 185.62,-56.5 2.62,-56.5"/>
<text text-anchor="middle" x="13.62" y="-69.7" font-family="Times,serif" font-size="14.00">a</text>
<polyline fill="none" stroke="black" points="24.62,-57 24.62,-92.5"/>
<text text-anchor="middle" x="64.5" y="-69.7" font-family="Times,serif" font-size="14.00">data 2.0000</text>
<polyline fill="none" stroke="black" points="104.38,-57 104.38,-92.5"/>
<text text-anchor="middle" x="145" y="-69.7" font-family="Times,serif" font-size="14.00">grad 0.0000</text>
</g>
<!-- 5063444112&#45;&gt;5063685776* -->
<g id="edge6" class="edge">
<title>5063444112&#45;&gt;5063685776*</title>
<path fill="none" stroke="black" d="M185.81,-90.28C195.45,-91.96 204.82,-93.59 213.29,-95.07"/>
<polygon fill="black" stroke="black" points="212.65,-98.51 223.1,-96.77 213.85,-91.61 212.65,-98.51"/>
</g>
<!-- 5063685776 -->
<g id="node7" class="node">
<title>5063685776</title>
<polygon fill="none" stroke="black" points="315.38,-83.5 315.38,-119.5 502.88,-119.5 502.88,-83.5 315.38,-83.5"/>
<text text-anchor="middle" x="326.38" y="-96.7" font-family="Times,serif" font-size="14.00">e</text>
<polyline fill="none" stroke="black" points="337.38,-84 337.38,-119.5"/>
<text text-anchor="middle" x="379.5" y="-96.7" font-family="Times,serif" font-size="14.00">data &#45;6.0000</text>
<polyline fill="none" stroke="black" points="421.62,-84 421.62,-119.5"/>
<text text-anchor="middle" x="462.25" y="-96.7" font-family="Times,serif" font-size="14.00">grad 0.0000</text>
</g>
<!-- 5063685776&#45;&gt;5063681680+ -->
<g id="edge9" class="edge">
<title>5063685776&#45;&gt;5063681680+</title>
<path fill="none" stroke="black" d="M503.05,-84.81C512.25,-83.16 521.16,-81.56 529.24,-80.1"/>
<polygon fill="black" stroke="black" points="529.71,-83.58 538.93,-78.36 528.47,-76.69 529.71,-83.58"/>
</g>
<!-- 5063685776*&#45;&gt;5063685776 -->
<g id="edge3" class="edge">
<title>5063685776*&#45;&gt;5063685776</title>
<path fill="none" stroke="black" d="M278.69,-101.5C286.1,-101.5 294.64,-101.5 303.71,-101.5"/>
<polygon fill="black" stroke="black" points="303.51,-105 313.51,-101.5 303.51,-98 303.51,-105"/>
</g>
<!-- 5063684816 -->
<g id="node9" class="node">
<title>5063684816</title>
<polygon fill="none" stroke="black" points="630,-0.5 630,-36.5 816,-36.5 816,-0.5 630,-0.5"/>
<text text-anchor="middle" x="640.25" y="-13.7" font-family="Times,serif" font-size="14.00">f</text>
<polyline fill="none" stroke="black" points="650.5,-1 650.5,-36.5"/>
<text text-anchor="middle" x="692.62" y="-13.7" font-family="Times,serif" font-size="14.00">data &#45;2.0000</text>
<polyline fill="none" stroke="black" points="734.75,-1 734.75,-36.5"/>
<text text-anchor="middle" x="775.38" y="-13.7" font-family="Times,serif" font-size="14.00">grad 0.0000</text>
</g>
<!-- 5063684816&#45;&gt;5063679632* -->
<g id="edge7" class="edge">
<title>5063684816&#45;&gt;5063679632*</title>
<path fill="none" stroke="black" d="M816.25,-34.67C825.01,-36.21 833.5,-37.7 841.24,-39.05"/>
<polygon fill="black" stroke="black" points="840.39,-42.46 850.84,-40.74 841.6,-35.56 840.39,-42.46"/>
</g>
<!-- 5063684496 -->
<g id="node10" class="node">
<title>5063684496</title>
<polygon fill="none" stroke="black" points="314.25,-28.5 314.25,-64.5 504,-64.5 504,-28.5 314.25,-28.5"/>
<text text-anchor="middle" x="325.25" y="-41.7" font-family="Times,serif" font-size="14.00">c</text>
<polyline fill="none" stroke="black" points="336.25,-29 336.25,-64.5"/>
<text text-anchor="middle" x="379.5" y="-41.7" font-family="Times,serif" font-size="14.00">data 10.0000</text>
<polyline fill="none" stroke="black" points="422.75,-29 422.75,-64.5"/>
<text text-anchor="middle" x="463.38" y="-41.7" font-family="Times,serif" font-size="14.00">grad 0.0000</text>
</g>
<!-- 5063684496&#45;&gt;5063681680+ -->
<g id="edge4" class="edge">
<title>5063684496&#45;&gt;5063681680+</title>
<path fill="none" stroke="black" d="M504.39,-62.83C513.16,-64.35 521.65,-65.82 529.37,-67.15"/>
<polygon fill="black" stroke="black" points="528.5,-70.56 538.95,-68.81 529.69,-63.66 528.5,-70.56"/>
</g>
</g>
</svg>
