<?xml version="1.0" encoding="UTF-8" standalone="no"?>
<!DOCTYPE svg PUBLIC "-//W3C//DTD SVG 1.1//EN"
 "http://www.w3.org/Graphics/SVG/1.1/DTD/svg11.dtd">
<!-- Generated by graphviz version 11.0.0 (20240428.1522)
 -->
<!-- Pages: 1 -->
<svg width="1140pt" height="128pt"
 viewBox="0.00 0.00 1139.75 128.00" xmlns="http://www.w3.org/2000/svg" xmlns:xlink="http://www.w3.org/1999/xlink">
<g id="graph0" class="graph" transform="scale(1 1) rotate(0) translate(4 124)">
<polygon fill="white" stroke="none" points="-4,4 -4,-124 1135.75,-124 1135.75,4 -4,4"/>
<!-- 4911203344 -->
<g id="node1" class="node">
<title>4911203344</title>
<polygon fill="none" stroke="black" points="942,-27.5 942,-63.5 1131.75,-63.5 1131.75,-27.5 942,-27.5"/>
<text text-anchor="middle" x="954.12" y="-40.7" font-family="Times,serif" font-size="14.00">L</text>
<polyline fill="none" stroke="black" points="966.25,-28 966.25,-63.5"/>
<text text-anchor="middle" x="1008.38" y="-40.7" font-family="Times,serif" font-size="14.00">data &#45;8.0000</text>
<polyline fill="none" stroke="black" points="1050.5,-28 1050.5,-63.5"/>
<text text-anchor="middle" x="1091.12" y="-40.7" font-family="Times,serif" font-size="14.00">grad 0.0000</text>
</g>
<!-- 4911203344* -->
<g id="node2" class="node">
<title>4911203344*</title>
<ellipse fill="none" stroke="black" cx="879" cy="-45.5" rx="27" ry="18"/>
<text text-anchor="middle" x="879" y="-40.45" font-family="Times,serif" font-size="14.00">*</text>
</g>
<!-- 4911203344*&#45;&gt;4911203344 -->
<g id="edge1" class="edge">
<title>4911203344*&#45;&gt;4911203344</title>
<path fill="none" stroke="black" d="M906.44,-45.5C913.59,-45.5 921.78,-45.5 930.49,-45.5"/>
<polygon fill="black" stroke="black" points="930.26,-49 940.26,-45.5 930.26,-42 930.26,-49"/>
</g>
<!-- 4911211120 -->
<g id="node3" class="node">
<title>4911211120</title>
<polygon fill="none" stroke="black" points="0,-56.5 0,-92.5 188.25,-92.5 188.25,-56.5 0,-56.5"/>
<text text-anchor="middle" x="11.38" y="-69.7" font-family="Times,serif" font-size="14.00">b</text>
<polyline fill="none" stroke="black" points="22.75,-57 22.75,-92.5"/>
<text text-anchor="middle" x="64.88" y="-69.7" font-family="Times,serif" font-size="14.00">data &#45;3.0000</text>
<polyline fill="none" stroke="black" points="107,-57 107,-92.5"/>
<text text-anchor="middle" x="147.62" y="-69.7" font-family="Times,serif" font-size="14.00">grad 0.0000</text>
</g>
<!-- 4911216544* -->
<g id="node9" class="node">
<title>4911216544*</title>
<ellipse fill="none" stroke="black" cx="251.25" cy="-46.5" rx="27" ry="18"/>
<text text-anchor="middle" x="251.25" y="-41.45" font-family="Times,serif" font-size="14.00">*</text>
</g>
<!-- 4911211120&#45;&gt;4911216544* -->
<g id="edge4" class="edge">
<title>4911211120&#45;&gt;4911216544*</title>
<path fill="none" stroke="black" d="M188.49,-57.65C197.36,-56.05 205.93,-54.5 213.73,-53.09"/>
<polygon fill="black" stroke="black" points="214.2,-56.56 223.42,-51.34 212.95,-49.68 214.2,-56.56"/>
</g>
<!-- 4911206080 -->
<g id="node4" class="node">
<title>4911206080</title>
<polygon fill="none" stroke="black" points="631.12,-55.5 631.12,-91.5 814.88,-91.5 814.88,-55.5 631.12,-55.5"/>
<text text-anchor="middle" x="642.5" y="-68.7" font-family="Times,serif" font-size="14.00">d</text>
<polyline fill="none" stroke="black" points="653.88,-56 653.88,-91.5"/>
<text text-anchor="middle" x="693.75" y="-68.7" font-family="Times,serif" font-size="14.00">data 4.0000</text>
<polyline fill="none" stroke="black" points="733.62,-56 733.62,-91.5"/>
<text text-anchor="middle" x="774.25" y="-68.7" font-family="Times,serif" font-size="14.00">grad 0.0000</text>
</g>
<!-- 4911206080&#45;&gt;4911203344* -->
<g id="edge9" class="edge">
<title>4911206080&#45;&gt;4911203344*</title>
<path fill="none" stroke="black" d="M815.36,-56.89C824.5,-55.23 833.36,-53.62 841.4,-52.15"/>
<polygon fill="black" stroke="black" points="841.83,-55.63 851.04,-50.4 840.57,-48.75 841.83,-55.63"/>
</g>
<!-- 4911206080+ -->
<g id="node5" class="node">
<title>4911206080+</title>
<ellipse fill="none" stroke="black" cx="567" cy="-73.5" rx="27" ry="18"/>
<text text-anchor="middle" x="567" y="-68.45" font-family="Times,serif" font-size="14.00">+</text>
</g>
<!-- 4911206080+&#45;&gt;4911206080 -->
<g id="edge2" class="edge">
<title>4911206080+&#45;&gt;4911206080</title>
<path fill="none" stroke="black" d="M594.47,-73.5C601.87,-73.5 610.38,-73.5 619.43,-73.5"/>
<polygon fill="black" stroke="black" points="619.17,-77 629.17,-73.5 619.17,-70 619.17,-77"/>
</g>
<!-- 4911204640 -->
<g id="node6" class="node">
<title>4911204640</title>
<polygon fill="none" stroke="black" points="2.62,-1.5 2.62,-37.5 185.62,-37.5 185.62,-1.5 2.62,-1.5"/>
<text text-anchor="middle" x="13.62" y="-14.7" font-family="Times,serif" font-size="14.00">a</text>
<polyline fill="none" stroke="black" points="24.62,-2 24.62,-37.5"/>
<text text-anchor="middle" x="64.5" y="-14.7" font-family="Times,serif" font-size="14.00">data 2.0000</text>
<polyline fill="none" stroke="black" points="104.38,-2 104.38,-37.5"/>
<text text-anchor="middle" x="145" y="-14.7" font-family="Times,serif" font-size="14.00">grad 0.0000</text>
</g>
<!-- 4911204640&#45;&gt;4911216544* -->
<g id="edge5" class="edge">
<title>4911204640&#45;&gt;4911216544*</title>
<path fill="none" stroke="black" d="M185.81,-35.28C195.45,-36.96 204.82,-38.59 213.29,-40.07"/>
<polygon fill="black" stroke="black" points="212.65,-43.51 223.1,-41.77 213.85,-36.61 212.65,-43.51"/>
</g>
<!-- 4911207232 -->
<g id="node7" class="node">
<title>4911207232</title>
<polygon fill="none" stroke="black" points="314.25,-83.5 314.25,-119.5 504,-119.5 504,-83.5 314.25,-83.5"/>
<text text-anchor="middle" x="325.25" y="-96.7" font-family="Times,serif" font-size="14.00">c</text>
<polyline fill="none" stroke="black" points="336.25,-84 336.25,-119.5"/>
<text text-anchor="middle" x="379.5" y="-96.7" font-family="Times,serif" font-size="14.00">data 10.0000</text>
<polyline fill="none" stroke="black" points="422.75,-84 422.75,-119.5"/>
<text text-anchor="middle" x="463.38" y="-96.7" font-family="Times,serif" font-size="14.00">grad 0.0000</text>
</g>
<!-- 4911207232&#45;&gt;4911206080+ -->
<g id="edge6" class="edge">
<title>4911207232&#45;&gt;4911206080+</title>
<path fill="none" stroke="black" d="M504.39,-84.57C513.16,-82.99 521.65,-81.47 529.37,-80.08"/>
<polygon fill="black" stroke="black" points="529.73,-83.57 538.95,-78.36 528.49,-76.68 529.73,-83.57"/>
</g>
<!-- 4911216544 -->
<g id="node8" class="node">
<title>4911216544</title>
<polygon fill="none" stroke="black" points="315.38,-28.5 315.38,-64.5 502.88,-64.5 502.88,-28.5 315.38,-28.5"/>
<text text-anchor="middle" x="326.38" y="-41.7" font-family="Times,serif" font-size="14.00">e</text>
<polyline fill="none" stroke="black" points="337.38,-29 337.38,-64.5"/>
<text text-anchor="middle" x="379.5" y="-41.7" font-family="Times,serif" font-size="14.00">data &#45;6.0000</text>
<polyline fill="none" stroke="black" points="421.62,-29 421.62,-64.5"/>
<text text-anchor="middle" x="462.25" y="-41.7" font-family="Times,serif" font-size="14.00">grad 0.0000</text>
</g>
<!-- 4911216544&#45;&gt;4911206080+ -->
<g id="edge7" class="edge">
<title>4911216544&#45;&gt;4911206080+</title>
<path fill="none" stroke="black" d="M503.05,-62.6C512.25,-64.19 521.16,-65.73 529.24,-67.13"/>
<polygon fill="black" stroke="black" points="528.48,-70.55 538.93,-68.81 529.68,-63.66 528.48,-70.55"/>
</g>
<!-- 4911216544*&#45;&gt;4911216544 -->
<g id="edge3" class="edge">
<title>4911216544*&#45;&gt;4911216544</title>
<path fill="none" stroke="black" d="M278.69,-46.5C286.1,-46.5 294.64,-46.5 303.71,-46.5"/>
<polygon fill="black" stroke="black" points="303.51,-50 313.51,-46.5 303.51,-43 303.51,-50"/>
</g>
<!-- 4911214528 -->
<g id="node10" class="node">
<title>4911214528</title>
<polygon fill="none" stroke="black" points="630,-0.5 630,-36.5 816,-36.5 816,-0.5 630,-0.5"/>
<text text-anchor="middle" x="640.25" y="-13.7" font-family="Times,serif" font-size="14.00">f</text>
<polyline fill="none" stroke="black" points="650.5,-1 650.5,-36.5"/>
<text text-anchor="middle" x="692.62" y="-13.7" font-family="Times,serif" font-size="14.00">data &#45;2.0000</text>
<polyline fill="none" stroke="black" points="734.75,-1 734.75,-36.5"/>
<text text-anchor="middle" x="775.38" y="-13.7" font-family="Times,serif" font-size="14.00">grad 0.0000</text>
</g>
<!-- 4911214528&#45;&gt;4911203344* -->
<g id="edge8" class="edge">
<title>4911214528&#45;&gt;4911203344*</title>
<path fill="none" stroke="black" d="M816.25,-34.67C825.01,-36.21 833.5,-37.7 841.24,-39.05"/>
<polygon fill="black" stroke="black" points="840.39,-42.46 850.84,-40.74 841.6,-35.56 840.39,-42.46"/>
</g>
</g>
</svg>
