<?xml version="1.0" encoding="UTF-8" standalone="no"?>
<!DOCTYPE svg PUBLIC "-//W3C//DTD SVG 1.1//EN"
 "http://www.w3.org/Graphics/SVG/1.1/DTD/svg11.dtd">
<!-- Generated by graphviz version 11.0.0 (20240428.1522)
 -->
<!-- Pages: 1 -->
<svg width="1573pt" height="210pt"
 viewBox="0.00 0.00 1573.25 210.00" xmlns="http://www.w3.org/2000/svg" xmlns:xlink="http://www.w3.org/1999/xlink">
<g id="graph0" class="graph" transform="scale(1 1) rotate(0) translate(4 206)">
<polygon fill="white" stroke="none" points="-4,4 -4,-206 1569.25,-206 1569.25,4 -4,4"/>
<!-- 4640073744 -->
<g id="node1" class="node">
<title>4640073744</title>
<polygon fill="none" stroke="black" points="330.75,-55.5 330.75,-91.5 549,-91.5 549,-55.5 330.75,-55.5"/>
<text text-anchor="middle" x="357.12" y="-68.7" font-family="Times,serif" font-size="14.00">x1*w1</text>
<polyline fill="none" stroke="black" points="383.5,-56 383.5,-91.5"/>
<text text-anchor="middle" x="425.62" y="-68.7" font-family="Times,serif" font-size="14.00">data &#45;6.0000</text>
<polyline fill="none" stroke="black" points="467.75,-56 467.75,-91.5"/>
<text text-anchor="middle" x="508.38" y="-68.7" font-family="Times,serif" font-size="14.00">grad 5.0000</text>
</g>
<!-- 4640079408+ -->
<g id="node4" class="node">
<title>4640079408+</title>
<ellipse fill="none" stroke="black" cx="612" cy="-100.5" rx="27" ry="18"/>
<text text-anchor="middle" x="612" y="-95.45" font-family="Times,serif" font-size="14.00">+</text>
</g>
<!-- 4640073744&#45;&gt;4640079408+ -->
<g id="edge11" class="edge">
<title>4640073744&#45;&gt;4640079408+</title>
<path fill="none" stroke="black" d="M549.1,-90.68C557.87,-92.07 566.29,-93.4 573.94,-94.62"/>
<polygon fill="black" stroke="black" points="573.34,-98.07 583.77,-96.18 574.44,-91.15 573.34,-98.07"/>
</g>
<!-- 4640073744* -->
<g id="node2" class="node">
<title>4640073744*</title>
<ellipse fill="none" stroke="black" cx="267.75" cy="-73.5" rx="27" ry="18"/>
<text text-anchor="middle" x="267.75" y="-68.45" font-family="Times,serif" font-size="14.00">*</text>
</g>
<!-- 4640073744*&#45;&gt;4640073744 -->
<g id="edge1" class="edge">
<title>4640073744*&#45;&gt;4640073744</title>
<path fill="none" stroke="black" d="M294.96,-73.5C302.04,-73.5 310.18,-73.5 318.92,-73.5"/>
<polygon fill="black" stroke="black" points="318.76,-77 328.76,-73.5 318.76,-70 318.76,-77"/>
</g>
<!-- 4640079408 -->
<g id="node3" class="node">
<title>4640079408</title>
<polygon fill="none" stroke="black" points="675,-82.5 675,-118.5 945.75,-118.5 945.75,-82.5 675,-82.5"/>
<text text-anchor="middle" x="727.62" y="-95.7" font-family="Times,serif" font-size="14.00">x1*w1 + x2*w2</text>
<polyline fill="none" stroke="black" points="780.25,-83 780.25,-118.5"/>
<text text-anchor="middle" x="822.38" y="-95.7" font-family="Times,serif" font-size="14.00">data &#45;6.0000</text>
<polyline fill="none" stroke="black" points="864.5,-83 864.5,-118.5"/>
<text text-anchor="middle" x="905.12" y="-95.7" font-family="Times,serif" font-size="14.00">grad 3.0000</text>
</g>
<!-- 4640076864+ -->
<g id="node6" class="node">
<title>4640076864+</title>
<ellipse fill="none" stroke="black" cx="1008.75" cy="-127.5" rx="27" ry="18"/>
<text text-anchor="middle" x="1008.75" y="-122.45" font-family="Times,serif" font-size="14.00">+</text>
</g>
<!-- 4640079408&#45;&gt;4640076864+ -->
<g id="edge9" class="edge">
<title>4640079408&#45;&gt;4640076864+</title>
<path fill="none" stroke="black" d="M945.89,-118.99C954.7,-120.21 963.06,-121.36 970.62,-122.4"/>
<polygon fill="black" stroke="black" points="969.91,-125.83 980.3,-123.73 970.87,-118.9 969.91,-125.83"/>
</g>
<!-- 4640079408+&#45;&gt;4640079408 -->
<g id="edge2" class="edge">
<title>4640079408+&#45;&gt;4640079408</title>
<path fill="none" stroke="black" d="M639.48,-100.5C646.48,-100.5 654.54,-100.5 663.27,-100.5"/>
<polygon fill="black" stroke="black" points="663.14,-104 673.14,-100.5 663.14,-97 663.14,-104"/>
</g>
<!-- 4640076864 -->
<g id="node5" class="node">
<title>4640076864</title>
<polygon fill="none" stroke="black" points="1071.75,-109.5 1071.75,-145.5 1255.5,-145.5 1255.5,-109.5 1071.75,-109.5"/>
<text text-anchor="middle" x="1083.12" y="-122.7" font-family="Times,serif" font-size="14.00">n</text>
<polyline fill="none" stroke="black" points="1094.5,-110 1094.5,-145.5"/>
<text text-anchor="middle" x="1134.38" y="-122.7" font-family="Times,serif" font-size="14.00">data 0.8814</text>
<polyline fill="none" stroke="black" points="1174.25,-110 1174.25,-145.5"/>
<text text-anchor="middle" x="1214.88" y="-122.7" font-family="Times,serif" font-size="14.00">grad 1.5000</text>
</g>
<!-- 4640071296tanh -->
<g id="node12" class="node">
<title>4640071296tanh</title>
<ellipse fill="none" stroke="black" cx="1318.5" cy="-127.5" rx="27" ry="18"/>
<text text-anchor="middle" x="1318.5" y="-122.45" font-family="Times,serif" font-size="14.00">tanh</text>
</g>
<!-- 4640076864&#45;&gt;4640071296tanh -->
<g id="edge14" class="edge">
<title>4640076864&#45;&gt;4640071296tanh</title>
<path fill="none" stroke="black" d="M1255.76,-127.5C1264.14,-127.5 1272.27,-127.5 1279.73,-127.5"/>
<polygon fill="black" stroke="black" points="1279.7,-131 1289.7,-127.5 1279.7,-124 1279.7,-131"/>
</g>
<!-- 4640076864+&#45;&gt;4640076864 -->
<g id="edge3" class="edge">
<title>4640076864+&#45;&gt;4640076864</title>
<path fill="none" stroke="black" d="M1036.03,-127.5C1043.17,-127.5 1051.36,-127.5 1060.07,-127.5"/>
<polygon fill="black" stroke="black" points="1059.81,-131 1069.81,-127.5 1059.81,-124 1059.81,-131"/>
</g>
<!-- 4640325712 -->
<g id="node7" class="node">
<title>4640325712</title>
<polygon fill="none" stroke="black" points="1.5,-55.5 1.5,-91.5 203.25,-91.5 203.25,-55.5 1.5,-55.5"/>
<text text-anchor="middle" x="16.25" y="-68.7" font-family="Times,serif" font-size="14.00">x1</text>
<polyline fill="none" stroke="black" points="31,-56 31,-91.5"/>
<text text-anchor="middle" x="70.88" y="-68.7" font-family="Times,serif" font-size="14.00">data 2.0000</text>
<polyline fill="none" stroke="black" points="110.75,-56 110.75,-91.5"/>
<text text-anchor="middle" x="157" y="-68.7" font-family="Times,serif" font-size="14.00">grad &#45;22.5000</text>
</g>
<!-- 4640325712&#45;&gt;4640073744* -->
<g id="edge6" class="edge">
<title>4640325712&#45;&gt;4640073744*</title>
<path fill="none" stroke="black" d="M203.58,-73.5C212.53,-73.5 221.17,-73.5 229.03,-73.5"/>
<polygon fill="black" stroke="black" points="228.79,-77 238.79,-73.5 228.79,-70 228.79,-77"/>
</g>
<!-- 4631995472 -->
<g id="node8" class="node">
<title>4631995472</title>
<polygon fill="none" stroke="black" points="5.62,-165.5 5.62,-201.5 199.12,-201.5 199.12,-165.5 5.62,-165.5"/>
<text text-anchor="middle" x="21.88" y="-178.7" font-family="Times,serif" font-size="14.00">w2</text>
<polyline fill="none" stroke="black" points="38.12,-166 38.12,-201.5"/>
<text text-anchor="middle" x="78" y="-178.7" font-family="Times,serif" font-size="14.00">data 1.0000</text>
<polyline fill="none" stroke="black" points="117.88,-166 117.88,-201.5"/>
<text text-anchor="middle" x="158.5" y="-178.7" font-family="Times,serif" font-size="14.00">grad 0.0000</text>
</g>
<!-- 4640070768* -->
<g id="node10" class="node">
<title>4640070768*</title>
<ellipse fill="none" stroke="black" cx="267.75" cy="-128.5" rx="27" ry="18"/>
<text text-anchor="middle" x="267.75" y="-123.45" font-family="Times,serif" font-size="14.00">*</text>
</g>
<!-- 4631995472&#45;&gt;4640070768* -->
<g id="edge10" class="edge">
<title>4631995472&#45;&gt;4640070768*</title>
<path fill="none" stroke="black" d="M178.27,-165.04C187.26,-162.39 196.26,-159.53 204.75,-156.5 214.85,-152.9 225.59,-148.33 235.24,-143.93"/>
<polygon fill="black" stroke="black" points="236.64,-147.14 244.21,-139.74 233.67,-140.8 236.64,-147.14"/>
</g>
<!-- 4640070768 -->
<g id="node9" class="node">
<title>4640070768</title>
<polygon fill="none" stroke="black" points="333,-110.5 333,-146.5 546.75,-146.5 546.75,-110.5 333,-110.5"/>
<text text-anchor="middle" x="359.38" y="-123.7" font-family="Times,serif" font-size="14.00">x2*w2</text>
<polyline fill="none" stroke="black" points="385.75,-111 385.75,-146.5"/>
<text text-anchor="middle" x="425.62" y="-123.7" font-family="Times,serif" font-size="14.00">data 0.0000</text>
<polyline fill="none" stroke="black" points="465.5,-111 465.5,-146.5"/>
<text text-anchor="middle" x="506.12" y="-123.7" font-family="Times,serif" font-size="14.00">grad 5.0000</text>
</g>
<!-- 4640070768&#45;&gt;4640079408+ -->
<g id="edge8" class="edge">
<title>4640070768&#45;&gt;4640079408+</title>
<path fill="none" stroke="black" d="M547.17,-111.01C556.64,-109.45 565.75,-107.95 573.96,-106.6"/>
<polygon fill="black" stroke="black" points="574.5,-110.05 583.8,-104.98 573.37,-103.15 574.5,-110.05"/>
</g>
<!-- 4640070768*&#45;&gt;4640070768 -->
<g id="edge4" class="edge">
<title>4640070768*&#45;&gt;4640070768</title>
<path fill="none" stroke="black" d="M294.96,-128.5C302.75,-128.5 311.83,-128.5 321.57,-128.5"/>
<polygon fill="black" stroke="black" points="321.3,-132 331.3,-128.5 321.3,-125 321.3,-132"/>
</g>
<!-- 4640071296 -->
<g id="node11" class="node">
<title>4640071296</title>
<polygon fill="none" stroke="black" points="1381.5,-109.5 1381.5,-145.5 1565.25,-145.5 1565.25,-109.5 1381.5,-109.5"/>
<text text-anchor="middle" x="1392.88" y="-122.7" font-family="Times,serif" font-size="14.00">o</text>
<polyline fill="none" stroke="black" points="1404.25,-110 1404.25,-145.5"/>
<text text-anchor="middle" x="1444.12" y="-122.7" font-family="Times,serif" font-size="14.00">data 0.7071</text>
<polyline fill="none" stroke="black" points="1484,-110 1484,-145.5"/>
<text text-anchor="middle" x="1524.62" y="-122.7" font-family="Times,serif" font-size="14.00">grad 1.0000</text>
</g>
<!-- 4640071296tanh&#45;&gt;4640071296 -->
<g id="edge5" class="edge">
<title>4640071296tanh&#45;&gt;4640071296</title>
<path fill="none" stroke="black" d="M1345.78,-127.5C1352.92,-127.5 1361.11,-127.5 1369.82,-127.5"/>
<polygon fill="black" stroke="black" points="1369.56,-131 1379.56,-127.5 1369.56,-124 1369.56,-131"/>
</g>
<!-- 4641719504 -->
<g id="node13" class="node">
<title>4641719504</title>
<polygon fill="none" stroke="black" points="0,-0.5 0,-36.5 204.75,-36.5 204.75,-0.5 0,-0.5"/>
<text text-anchor="middle" x="16.25" y="-13.7" font-family="Times,serif" font-size="14.00">w1</text>
<polyline fill="none" stroke="black" points="32.5,-1 32.5,-36.5"/>
<text text-anchor="middle" x="74.62" y="-13.7" font-family="Times,serif" font-size="14.00">data &#45;3.0000</text>
<polyline fill="none" stroke="black" points="116.75,-1 116.75,-36.5"/>
<text text-anchor="middle" x="160.75" y="-13.7" font-family="Times,serif" font-size="14.00">grad 15.0000</text>
</g>
<!-- 4641719504&#45;&gt;4640073744* -->
<g id="edge7" class="edge">
<title>4641719504&#45;&gt;4640073744*</title>
<path fill="none" stroke="black" d="M175.21,-36.98C185.2,-39.95 195.28,-43.15 204.75,-46.5 214.72,-50.03 225.35,-54.42 234.95,-58.62"/>
<polygon fill="black" stroke="black" points="233.31,-61.72 243.86,-62.62 236.17,-55.34 233.31,-61.72"/>
</g>
<!-- 4879238880 -->
<g id="node14" class="node">
<title>4879238880</title>
<polygon fill="none" stroke="black" points="718.5,-137.5 718.5,-173.5 902.25,-173.5 902.25,-137.5 718.5,-137.5"/>
<text text-anchor="middle" x="729.88" y="-150.7" font-family="Times,serif" font-size="14.00">b</text>
<polyline fill="none" stroke="black" points="741.25,-138 741.25,-173.5"/>
<text text-anchor="middle" x="781.12" y="-150.7" font-family="Times,serif" font-size="14.00">data 6.8814</text>
<polyline fill="none" stroke="black" points="821,-138 821,-173.5"/>
<text text-anchor="middle" x="861.62" y="-150.7" font-family="Times,serif" font-size="14.00">grad 3.0000</text>
</g>
<!-- 4879238880&#45;&gt;4640076864+ -->
<g id="edge12" class="edge">
<title>4879238880&#45;&gt;4640076864+</title>
<path fill="none" stroke="black" d="M902.66,-142.48C926.72,-139.05 951.33,-135.55 970.68,-132.79"/>
<polygon fill="black" stroke="black" points="971.09,-136.26 980.5,-131.39 970.1,-129.33 971.09,-136.26"/>
</g>
<!-- 4640326000 -->
<g id="node15" class="node">
<title>4640326000</title>
<polygon fill="none" stroke="black" points="7.12,-110.5 7.12,-146.5 197.62,-146.5 197.62,-110.5 7.12,-110.5"/>
<text text-anchor="middle" x="21.88" y="-123.7" font-family="Times,serif" font-size="14.00">x2</text>
<polyline fill="none" stroke="black" points="36.62,-111 36.62,-146.5"/>
<text text-anchor="middle" x="76.5" y="-123.7" font-family="Times,serif" font-size="14.00">data 0.0000</text>
<polyline fill="none" stroke="black" points="116.38,-111 116.38,-146.5"/>
<text text-anchor="middle" x="157" y="-123.7" font-family="Times,serif" font-size="14.00">grad 7.5000</text>
</g>
<!-- 4640326000&#45;&gt;4640070768* -->
<g id="edge13" class="edge">
<title>4640326000&#45;&gt;4640070768*</title>
<path fill="none" stroke="black" d="M197.94,-128.5C208.85,-128.5 219.45,-128.5 228.93,-128.5"/>
<polygon fill="black" stroke="black" points="228.77,-132 238.77,-128.5 228.77,-125 228.77,-132"/>
</g>
</g>
</svg>
