<?xml version="1.0" encoding="UTF-8" standalone="no"?>
<!DOCTYPE svg PUBLIC "-//W3C//DTD SVG 1.1//EN"
 "http://www.w3.org/Graphics/SVG/1.1/DTD/svg11.dtd">
<!-- Generated by graphviz version 11.0.0 (20240428.1522)
 -->
<!-- Pages: 1 -->
<svg width="1151pt" height="128pt"
 viewBox="0.00 0.00 1151.00 128.00" xmlns="http://www.w3.org/2000/svg" xmlns:xlink="http://www.w3.org/1999/xlink">
<g id="graph0" class="graph" transform="scale(1 1) rotate(0) translate(4 124)">
<polygon fill="white" stroke="none" points="-4,4 -4,-124 1147,-124 1147,4 -4,4"/>
<!-- 4911203344 -->
<g id="node1" class="node">
<title>4911203344</title>
<polygon fill="none" stroke="black" points="953.25,-27.5 953.25,-63.5 1143,-63.5 1143,-27.5 953.25,-27.5"/>
<text text-anchor="middle" x="965.38" y="-40.7" font-family="Times,serif" font-size="14.00">L</text>
<polyline fill="none" stroke="black" points="977.5,-28 977.5,-63.5"/>
<text text-anchor="middle" x="1019.62" y="-40.7" font-family="Times,serif" font-size="14.00">data &#45;8.0000</text>
<polyline fill="none" stroke="black" points="1061.75,-28 1061.75,-63.5"/>
<text text-anchor="middle" x="1102.38" y="-40.7" font-family="Times,serif" font-size="14.00">grad 1.0000</text>
</g>
<!-- 4911203344* -->
<g id="node2" class="node">
<title>4911203344*</title>
<ellipse fill="none" stroke="black" cx="890.25" cy="-45.5" rx="27" ry="18"/>
<text text-anchor="middle" x="890.25" y="-40.45" font-family="Times,serif" font-size="14.00">*</text>
</g>
<!-- 4911203344*&#45;&gt;4911203344 -->
<g id="edge1" class="edge">
<title>4911203344*&#45;&gt;4911203344</title>
<path fill="none" stroke="black" d="M917.69,-45.5C924.84,-45.5 933.03,-45.5 941.74,-45.5"/>
<polygon fill="black" stroke="black" points="941.51,-49 951.51,-45.5 941.51,-42 941.51,-49"/>
</g>
<!-- 4911211120 -->
<g id="node3" class="node">
<title>4911211120</title>
<polygon fill="none" stroke="black" points="0,-56.5 0,-92.5 192.75,-92.5 192.75,-56.5 0,-56.5"/>
<text text-anchor="middle" x="11.38" y="-69.7" font-family="Times,serif" font-size="14.00">b</text>
<polyline fill="none" stroke="black" points="22.75,-57 22.75,-92.5"/>
<text text-anchor="middle" x="64.88" y="-69.7" font-family="Times,serif" font-size="14.00">data &#45;3.0000</text>
<polyline fill="none" stroke="black" points="107,-57 107,-92.5"/>
<text text-anchor="middle" x="149.88" y="-69.7" font-family="Times,serif" font-size="14.00">grad &#45;4.0000</text>
</g>
<!-- 4911216544* -->
<g id="node9" class="node">
<title>4911216544*</title>
<ellipse fill="none" stroke="black" cx="255.75" cy="-46.5" rx="27" ry="18"/>
<text text-anchor="middle" x="255.75" y="-41.45" font-family="Times,serif" font-size="14.00">*</text>
</g>
<!-- 4911211120&#45;&gt;4911216544* -->
<g id="edge4" class="edge">
<title>4911211120&#45;&gt;4911216544*</title>
<path fill="none" stroke="black" d="M193,-57.49C201.81,-55.92 210.32,-54.41 218.06,-53.03"/>
<polygon fill="black" stroke="black" points="218.43,-56.52 227.66,-51.32 217.21,-49.62 218.43,-56.52"/>
</g>
<!-- 4911206080 -->
<g id="node4" class="node">
<title>4911206080</title>
<polygon fill="none" stroke="black" points="639,-55.5 639,-91.5 827.25,-91.5 827.25,-55.5 639,-55.5"/>
<text text-anchor="middle" x="650.38" y="-68.7" font-family="Times,serif" font-size="14.00">d</text>
<polyline fill="none" stroke="black" points="661.75,-56 661.75,-91.5"/>
<text text-anchor="middle" x="701.62" y="-68.7" font-family="Times,serif" font-size="14.00">data 4.0000</text>
<polyline fill="none" stroke="black" points="741.5,-56 741.5,-91.5"/>
<text text-anchor="middle" x="784.38" y="-68.7" font-family="Times,serif" font-size="14.00">grad &#45;2.0000</text>
</g>
<!-- 4911206080&#45;&gt;4911203344* -->
<g id="edge9" class="edge">
<title>4911206080&#45;&gt;4911203344*</title>
<path fill="none" stroke="black" d="M827.49,-56.65C836.36,-55.05 844.93,-53.5 852.73,-52.09"/>
<polygon fill="black" stroke="black" points="853.2,-55.56 862.42,-50.34 851.95,-48.68 853.2,-55.56"/>
</g>
<!-- 4911206080+ -->
<g id="node5" class="node">
<title>4911206080+</title>
<ellipse fill="none" stroke="black" cx="576" cy="-73.5" rx="27" ry="18"/>
<text text-anchor="middle" x="576" y="-68.45" font-family="Times,serif" font-size="14.00">+</text>
</g>
<!-- 4911206080+&#45;&gt;4911206080 -->
<g id="edge2" class="edge">
<title>4911206080+&#45;&gt;4911206080</title>
<path fill="none" stroke="black" d="M603.31,-73.5C610.49,-73.5 618.72,-73.5 627.47,-73.5"/>
<polygon fill="black" stroke="black" points="627.29,-77 637.29,-73.5 627.29,-70 627.29,-77"/>
</g>
<!-- 4911204640 -->
<g id="node6" class="node">
<title>4911204640</title>
<polygon fill="none" stroke="black" points="4.88,-1.5 4.88,-37.5 187.88,-37.5 187.88,-1.5 4.88,-1.5"/>
<text text-anchor="middle" x="15.88" y="-14.7" font-family="Times,serif" font-size="14.00">a</text>
<polyline fill="none" stroke="black" points="26.88,-2 26.88,-37.5"/>
<text text-anchor="middle" x="66.75" y="-14.7" font-family="Times,serif" font-size="14.00">data 2.0000</text>
<polyline fill="none" stroke="black" points="106.62,-2 106.62,-37.5"/>
<text text-anchor="middle" x="147.25" y="-14.7" font-family="Times,serif" font-size="14.00">grad 6.0000</text>
</g>
<!-- 4911204640&#45;&gt;4911216544* -->
<g id="edge5" class="edge">
<title>4911204640&#45;&gt;4911216544*</title>
<path fill="none" stroke="black" d="M188.01,-35.05C198.46,-36.84 208.62,-38.59 217.74,-40.15"/>
<polygon fill="black" stroke="black" points="217.11,-43.59 227.56,-41.84 218.3,-36.69 217.11,-43.59"/>
</g>
<!-- 4911207232 -->
<g id="node7" class="node">
<title>4911207232</title>
<polygon fill="none" stroke="black" points="318.75,-83.5 318.75,-119.5 513,-119.5 513,-83.5 318.75,-83.5"/>
<text text-anchor="middle" x="329.75" y="-96.7" font-family="Times,serif" font-size="14.00">c</text>
<polyline fill="none" stroke="black" points="340.75,-84 340.75,-119.5"/>
<text text-anchor="middle" x="384" y="-96.7" font-family="Times,serif" font-size="14.00">data 10.0000</text>
<polyline fill="none" stroke="black" points="427.25,-84 427.25,-119.5"/>
<text text-anchor="middle" x="470.12" y="-96.7" font-family="Times,serif" font-size="14.00">grad &#45;2.0000</text>
</g>
<!-- 4911207232&#45;&gt;4911206080+ -->
<g id="edge6" class="edge">
<title>4911207232&#45;&gt;4911206080+</title>
<path fill="none" stroke="black" d="M513.41,-84.41C522.21,-82.85 530.7,-81.34 538.42,-79.98"/>
<polygon fill="black" stroke="black" points="538.77,-83.47 548,-78.28 537.55,-76.58 538.77,-83.47"/>
</g>
<!-- 4911216544 -->
<g id="node8" class="node">
<title>4911216544</title>
<polygon fill="none" stroke="black" points="319.88,-28.5 319.88,-64.5 511.88,-64.5 511.88,-28.5 319.88,-28.5"/>
<text text-anchor="middle" x="330.88" y="-41.7" font-family="Times,serif" font-size="14.00">e</text>
<polyline fill="none" stroke="black" points="341.88,-29 341.88,-64.5"/>
<text text-anchor="middle" x="384" y="-41.7" font-family="Times,serif" font-size="14.00">data &#45;6.0000</text>
<polyline fill="none" stroke="black" points="426.12,-29 426.12,-64.5"/>
<text text-anchor="middle" x="469" y="-41.7" font-family="Times,serif" font-size="14.00">grad &#45;2.0000</text>
</g>
<!-- 4911216544&#45;&gt;4911206080+ -->
<g id="edge7" class="edge">
<title>4911216544&#45;&gt;4911206080+</title>
<path fill="none" stroke="black" d="M512.05,-62.75C521.28,-64.33 530.2,-65.85 538.29,-67.23"/>
<polygon fill="black" stroke="black" points="537.53,-70.65 547.98,-68.89 538.71,-63.75 537.53,-70.65"/>
</g>
<!-- 4911216544*&#45;&gt;4911216544 -->
<g id="edge3" class="edge">
<title>4911216544*&#45;&gt;4911216544</title>
<path fill="none" stroke="black" d="M283.22,-46.5C290.59,-46.5 299.09,-46.5 308.13,-46.5"/>
<polygon fill="black" stroke="black" points="307.89,-50 317.89,-46.5 307.89,-43 307.89,-50"/>
</g>
<!-- 4911214528 -->
<g id="node10" class="node">
<title>4911214528</title>
<polygon fill="none" stroke="black" points="640.12,-0.5 640.12,-36.5 826.12,-36.5 826.12,-0.5 640.12,-0.5"/>
<text text-anchor="middle" x="650.38" y="-13.7" font-family="Times,serif" font-size="14.00">f</text>
<polyline fill="none" stroke="black" points="660.62,-1 660.62,-36.5"/>
<text text-anchor="middle" x="702.75" y="-13.7" font-family="Times,serif" font-size="14.00">data &#45;2.0000</text>
<polyline fill="none" stroke="black" points="744.88,-1 744.88,-36.5"/>
<text text-anchor="middle" x="785.5" y="-13.7" font-family="Times,serif" font-size="14.00">grad 4.0000</text>
</g>
<!-- 4911214528&#45;&gt;4911203344* -->
<g id="edge8" class="edge">
<title>4911214528&#45;&gt;4911203344*</title>
<path fill="none" stroke="black" d="M826.6,-34.6C835.76,-36.19 844.62,-37.73 852.67,-39.13"/>
<polygon fill="black" stroke="black" points="851.85,-42.54 862.3,-40.81 853.05,-35.65 851.85,-42.54"/>
</g>
</g>
</svg>
