<?xml version="1.0" encoding="UTF-8" standalone="no"?>
<!DOCTYPE svg PUBLIC "-//W3C//DTD SVG 1.1//EN"
 "http://www.w3.org/Graphics/SVG/1.1/DTD/svg11.dtd">
<!-- Generated by graphviz version 11.0.0 (20240428.1522)
 -->
<!-- Pages: 1 -->
<svg width="2929pt" height="239pt"
 viewBox="0.00 0.00 2929.25 239.00" xmlns="http://www.w3.org/2000/svg" xmlns:xlink="http://www.w3.org/1999/xlink">
<g id="graph0" class="graph" transform="scale(1 1) rotate(0) translate(4 235)">
<polygon fill="white" stroke="none" points="-4,4 -4,-235 2925.25,-235 2925.25,4 -4,4"/>
<!-- 5064722960 -->
<g id="node1" class="node">
<title>5064722960</title>
<polygon fill="none" stroke="black" points="0,-194.5 0,-230.5 198,-230.5 198,-194.5 0,-194.5"/>
<text text-anchor="middle" x="16.25" y="-207.7" font-family="Times,serif" font-size="14.00">w1</text>
<polyline fill="none" stroke="black" points="32.5,-195 32.5,-230.5"/>
<text text-anchor="middle" x="74.62" y="-207.7" font-family="Times,serif" font-size="14.00">data &#45;3.0000</text>
<polyline fill="none" stroke="black" points="116.75,-195 116.75,-230.5"/>
<text text-anchor="middle" x="157.38" y="-207.7" font-family="Times,serif" font-size="14.00">grad 1.0000</text>
</g>
<!-- 5064723216* -->
<g id="node14" class="node">
<title>5064723216*</title>
<ellipse fill="none" stroke="black" cx="261" cy="-157.5" rx="27" ry="18"/>
<text text-anchor="middle" x="261" y="-152.45" font-family="Times,serif" font-size="14.00">*</text>
</g>
<!-- 5064722960&#45;&gt;5064723216* -->
<g id="edge23" class="edge">
<title>5064722960&#45;&gt;5064723216*</title>
<path fill="none" stroke="black" d="M172.12,-194.01C180.9,-191.35 189.7,-188.5 198,-185.5 208.09,-181.86 218.82,-177.27 228.47,-172.88"/>
<polygon fill="black" stroke="black" points="229.86,-176.09 237.45,-168.69 226.9,-169.75 229.86,-176.09"/>
</g>
<!-- 5064723472 -->
<g id="node2" class="node">
<title>5064723472</title>
<polygon fill="none" stroke="black" points="326.25,-84.5 326.25,-120.5 540,-120.5 540,-84.5 326.25,-84.5"/>
<text text-anchor="middle" x="352.62" y="-97.7" font-family="Times,serif" font-size="14.00">x2*w2</text>
<polyline fill="none" stroke="black" points="379,-85 379,-120.5"/>
<text text-anchor="middle" x="418.88" y="-97.7" font-family="Times,serif" font-size="14.00">data 0.0000</text>
<polyline fill="none" stroke="black" points="458.75,-85 458.75,-120.5"/>
<text text-anchor="middle" x="499.38" y="-97.7" font-family="Times,serif" font-size="14.00">grad 0.5000</text>
</g>
<!-- 5064722256+ -->
<g id="node20" class="node">
<title>5064722256+</title>
<ellipse fill="none" stroke="black" cx="605.25" cy="-129.5" rx="27" ry="18"/>
<text text-anchor="middle" x="605.25" y="-124.45" font-family="Times,serif" font-size="14.00">+</text>
</g>
<!-- 5064723472&#45;&gt;5064722256+ -->
<g id="edge26" class="edge">
<title>5064723472&#45;&gt;5064722256+</title>
<path fill="none" stroke="black" d="M540.42,-119.37C549.89,-120.87 559,-122.32 567.21,-123.62"/>
<polygon fill="black" stroke="black" points="566.63,-127.07 577.05,-125.18 567.72,-120.16 566.63,-127.07"/>
</g>
<!-- 5064723472* -->
<g id="node3" class="node">
<title>5064723472*</title>
<ellipse fill="none" stroke="black" cx="261" cy="-102.5" rx="27" ry="18"/>
<text text-anchor="middle" x="261" y="-97.45" font-family="Times,serif" font-size="14.00">*</text>
</g>
<!-- 5064723472*&#45;&gt;5064723472 -->
<g id="edge1" class="edge">
<title>5064723472*&#45;&gt;5064723472</title>
<path fill="none" stroke="black" d="M288.21,-102.5C296,-102.5 305.08,-102.5 314.82,-102.5"/>
<polygon fill="black" stroke="black" points="314.55,-106 324.55,-102.5 314.55,-99 314.55,-106"/>
</g>
<!-- 5064724048 -->
<g id="node4" class="node">
<title>5064724048</title>
<polygon fill="none" stroke="black" points="2430.75,-31.5 2430.75,-67.5 2611.5,-67.5 2611.5,-31.5 2430.75,-31.5"/>
<text text-anchor="middle" x="2440.62" y="-44.7" font-family="Times,serif" font-size="14.00"> </text>
<polyline fill="none" stroke="black" points="2450.5,-32 2450.5,-67.5"/>
<text text-anchor="middle" x="2490.38" y="-44.7" font-family="Times,serif" font-size="14.00">data 0.1464</text>
<polyline fill="none" stroke="black" points="2530.25,-32 2530.25,-67.5"/>
<text text-anchor="middle" x="2570.88" y="-44.7" font-family="Times,serif" font-size="14.00">grad 4.8284</text>
</g>
<!-- 5064724176* -->
<g id="node9" class="node">
<title>5064724176*</title>
<ellipse fill="none" stroke="black" cx="2674.5" cy="-72.5" rx="27" ry="18"/>
<text text-anchor="middle" x="2674.5" y="-67.45" font-family="Times,serif" font-size="14.00">*</text>
</g>
<!-- 5064724048&#45;&gt;5064724176* -->
<g id="edge27" class="edge">
<title>5064724048&#45;&gt;5064724176*</title>
<path fill="none" stroke="black" d="M2611.93,-63.15C2620.54,-64.45 2628.89,-65.72 2636.53,-66.88"/>
<polygon fill="black" stroke="black" points="2635.96,-70.34 2646.37,-68.38 2637.01,-63.41 2635.96,-70.34"/>
</g>
<!-- 5064724048**&#45;1 -->
<g id="node5" class="node">
<title>5064724048**&#45;1</title>
<ellipse fill="none" stroke="black" cx="2304.38" cy="-45.5" rx="27.81" ry="18"/>
<text text-anchor="middle" x="2304.38" y="-40.45" font-family="Times,serif" font-size="14.00">**&#45;1</text>
</g>
<!-- 5064724048**&#45;1&#45;&gt;5064724048 -->
<g id="edge2" class="edge">
<title>5064724048**&#45;1&#45;&gt;5064724048</title>
<path fill="none" stroke="black" d="M2332.57,-46.01C2354.68,-46.42 2387.33,-47.03 2419.22,-47.62"/>
<polygon fill="black" stroke="black" points="2418.87,-51.11 2428.93,-47.8 2419,-44.12 2418.87,-51.11"/>
</g>
<!-- 5064723536 -->
<g id="node6" class="node">
<title>5064723536</title>
<polygon fill="none" stroke="black" points="1065,-83.5 1065,-119.5 1248.75,-119.5 1248.75,-83.5 1065,-83.5"/>
<text text-anchor="middle" x="1076.38" y="-96.7" font-family="Times,serif" font-size="14.00">n</text>
<polyline fill="none" stroke="black" points="1087.75,-84 1087.75,-119.5"/>
<text text-anchor="middle" x="1127.62" y="-96.7" font-family="Times,serif" font-size="14.00">data 0.8814</text>
<polyline fill="none" stroke="black" points="1167.5,-84 1167.5,-119.5"/>
<text text-anchor="middle" x="1208.12" y="-96.7" font-family="Times,serif" font-size="14.00">grad 0.5000</text>
</g>
<!-- 5064721744* -->
<g id="node18" class="node">
<title>5064721744*</title>
<ellipse fill="none" stroke="black" cx="1311.75" cy="-73.5" rx="27" ry="18"/>
<text text-anchor="middle" x="1311.75" y="-68.45" font-family="Times,serif" font-size="14.00">*</text>
</g>
<!-- 5064723536&#45;&gt;5064721744* -->
<g id="edge13" class="edge">
<title>5064723536&#45;&gt;5064721744*</title>
<path fill="none" stroke="black" d="M1249.01,-84.81C1257.84,-83.19 1266.4,-81.62 1274.19,-80.2"/>
<polygon fill="black" stroke="black" points="1274.67,-83.67 1283.88,-78.42 1273.41,-76.78 1274.67,-83.67"/>
</g>
<!-- 5064723536+ -->
<g id="node7" class="node">
<title>5064723536+</title>
<ellipse fill="none" stroke="black" cx="1002" cy="-101.5" rx="27" ry="18"/>
<text text-anchor="middle" x="1002" y="-96.45" font-family="Times,serif" font-size="14.00">+</text>
</g>
<!-- 5064723536+&#45;&gt;5064723536 -->
<g id="edge3" class="edge">
<title>5064723536+&#45;&gt;5064723536</title>
<path fill="none" stroke="black" d="M1029.28,-101.5C1036.42,-101.5 1044.61,-101.5 1053.32,-101.5"/>
<polygon fill="black" stroke="black" points="1053.06,-105 1063.06,-101.5 1053.06,-98 1053.06,-105"/>
</g>
<!-- 5064724176 -->
<g id="node8" class="node">
<title>5064724176</title>
<polygon fill="none" stroke="black" points="2737.5,-54.5 2737.5,-90.5 2921.25,-90.5 2921.25,-54.5 2737.5,-54.5"/>
<text text-anchor="middle" x="2748.88" y="-67.7" font-family="Times,serif" font-size="14.00">o</text>
<polyline fill="none" stroke="black" points="2760.25,-55 2760.25,-90.5"/>
<text text-anchor="middle" x="2800.12" y="-67.7" font-family="Times,serif" font-size="14.00">data 0.7071</text>
<polyline fill="none" stroke="black" points="2840,-55 2840,-90.5"/>
<text text-anchor="middle" x="2880.62" y="-67.7" font-family="Times,serif" font-size="14.00">grad 1.0000</text>
</g>
<!-- 5064724176*&#45;&gt;5064724176 -->
<g id="edge4" class="edge">
<title>5064724176*&#45;&gt;5064724176</title>
<path fill="none" stroke="black" d="M2701.78,-72.5C2708.92,-72.5 2717.11,-72.5 2725.82,-72.5"/>
<polygon fill="black" stroke="black" points="2725.56,-76 2735.56,-72.5 2725.56,-69 2725.56,-76"/>
</g>
<!-- 5064519888 -->
<g id="node10" class="node">
<title>5064519888</title>
<polygon fill="none" stroke="black" points="1066.5,-28.5 1066.5,-64.5 1247.25,-64.5 1247.25,-28.5 1066.5,-28.5"/>
<text text-anchor="middle" x="1076.38" y="-41.7" font-family="Times,serif" font-size="14.00"> </text>
<polyline fill="none" stroke="black" points="1086.25,-29 1086.25,-64.5"/>
<text text-anchor="middle" x="1126.12" y="-41.7" font-family="Times,serif" font-size="14.00">data 2.0000</text>
<polyline fill="none" stroke="black" points="1166,-29 1166,-64.5"/>
<text text-anchor="middle" x="1206.62" y="-41.7" font-family="Times,serif" font-size="14.00">grad 0.2203</text>
</g>
<!-- 5064519888&#45;&gt;5064721744* -->
<g id="edge12" class="edge">
<title>5064519888&#45;&gt;5064721744*</title>
<path fill="none" stroke="black" d="M1247.69,-62.36C1256.94,-64 1265.93,-65.58 1274.08,-67.02"/>
<polygon fill="black" stroke="black" points="1273.41,-70.46 1283.87,-68.75 1274.63,-63.57 1273.41,-70.46"/>
</g>
<!-- 5064722128 -->
<g id="node11" class="node">
<title>5064722128</title>
<polygon fill="none" stroke="black" points="1.5,-139.5 1.5,-175.5 196.5,-175.5 196.5,-139.5 1.5,-139.5"/>
<text text-anchor="middle" x="16.25" y="-152.7" font-family="Times,serif" font-size="14.00">x1</text>
<polyline fill="none" stroke="black" points="31,-140 31,-175.5"/>
<text text-anchor="middle" x="70.88" y="-152.7" font-family="Times,serif" font-size="14.00">data 2.0000</text>
<polyline fill="none" stroke="black" points="110.75,-140 110.75,-175.5"/>
<text text-anchor="middle" x="153.62" y="-152.7" font-family="Times,serif" font-size="14.00">grad &#45;1.5000</text>
</g>
<!-- 5064722128&#45;&gt;5064723216* -->
<g id="edge16" class="edge">
<title>5064722128&#45;&gt;5064723216*</title>
<path fill="none" stroke="black" d="M196.76,-157.5C205.77,-157.5 214.47,-157.5 222.4,-157.5"/>
<polygon fill="black" stroke="black" points="222.25,-161 232.25,-157.5 222.25,-154 222.25,-161"/>
</g>
<!-- 5064722640 -->
<g id="node12" class="node">
<title>5064722640</title>
<polygon fill="none" stroke="black" points="711.75,-56.5 711.75,-92.5 895.5,-92.5 895.5,-56.5 711.75,-56.5"/>
<text text-anchor="middle" x="723.12" y="-69.7" font-family="Times,serif" font-size="14.00">b</text>
<polyline fill="none" stroke="black" points="734.5,-57 734.5,-92.5"/>
<text text-anchor="middle" x="774.38" y="-69.7" font-family="Times,serif" font-size="14.00">data 6.8814</text>
<polyline fill="none" stroke="black" points="814.25,-57 814.25,-92.5"/>
<text text-anchor="middle" x="854.88" y="-69.7" font-family="Times,serif" font-size="14.00">grad 0.5000</text>
</g>
<!-- 5064722640&#45;&gt;5064723536+ -->
<g id="edge15" class="edge">
<title>5064722640&#45;&gt;5064723536+</title>
<path fill="none" stroke="black" d="M895.91,-87.05C919.97,-90.36 944.58,-93.74 963.93,-96.4"/>
<polygon fill="black" stroke="black" points="963.36,-99.86 973.75,-97.75 964.32,-92.92 963.36,-99.86"/>
</g>
<!-- 5064723216 -->
<g id="node13" class="node">
<title>5064723216</title>
<polygon fill="none" stroke="black" points="324,-139.5 324,-175.5 542.25,-175.5 542.25,-139.5 324,-139.5"/>
<text text-anchor="middle" x="350.38" y="-152.7" font-family="Times,serif" font-size="14.00">x1*w1</text>
<polyline fill="none" stroke="black" points="376.75,-140 376.75,-175.5"/>
<text text-anchor="middle" x="418.88" y="-152.7" font-family="Times,serif" font-size="14.00">data &#45;6.0000</text>
<polyline fill="none" stroke="black" points="461,-140 461,-175.5"/>
<text text-anchor="middle" x="501.62" y="-152.7" font-family="Times,serif" font-size="14.00">grad 0.5000</text>
</g>
<!-- 5064723216&#45;&gt;5064722256+ -->
<g id="edge14" class="edge">
<title>5064723216&#45;&gt;5064722256+</title>
<path fill="none" stroke="black" d="M542.35,-139.69C551.12,-138.24 559.54,-136.86 567.19,-135.6"/>
<polygon fill="black" stroke="black" points="567.72,-139.06 577.02,-133.98 566.58,-132.15 567.72,-139.06"/>
</g>
<!-- 5064723216*&#45;&gt;5064723216 -->
<g id="edge5" class="edge">
<title>5064723216*&#45;&gt;5064723216</title>
<path fill="none" stroke="black" d="M288.21,-157.5C295.29,-157.5 303.43,-157.5 312.17,-157.5"/>
<polygon fill="black" stroke="black" points="312.01,-161 322.01,-157.5 312.01,-154 312.01,-161"/>
</g>
<!-- 5064723664 -->
<g id="node15" class="node">
<title>5064723664</title>
<polygon fill="none" stroke="black" points="2214,-82.5 2214,-118.5 2394.75,-118.5 2394.75,-82.5 2214,-82.5"/>
<text text-anchor="middle" x="2223.88" y="-95.7" font-family="Times,serif" font-size="14.00"> </text>
<polyline fill="none" stroke="black" points="2233.75,-83 2233.75,-118.5"/>
<text text-anchor="middle" x="2273.62" y="-95.7" font-family="Times,serif" font-size="14.00">data 4.8284</text>
<polyline fill="none" stroke="black" points="2313.5,-83 2313.5,-118.5"/>
<text text-anchor="middle" x="2354.12" y="-95.7" font-family="Times,serif" font-size="14.00">grad 0.1464</text>
</g>
<!-- 5064723664&#45;&gt;5064724176* -->
<g id="edge24" class="edge">
<title>5064723664&#45;&gt;5064724176*</title>
<path fill="none" stroke="black" d="M2395.13,-93.89C2456.15,-89.36 2538.7,-83.17 2611.5,-77.5 2619.38,-76.89 2627.83,-76.21 2635.87,-75.57"/>
<polygon fill="black" stroke="black" points="2636.06,-79.06 2645.75,-74.77 2635.5,-72.09 2636.06,-79.06"/>
</g>
<!-- 5064723664+ -->
<g id="node16" class="node">
<title>5064723664+</title>
<ellipse fill="none" stroke="black" cx="1929.75" cy="-100.5" rx="27" ry="18"/>
<text text-anchor="middle" x="1929.75" y="-95.45" font-family="Times,serif" font-size="14.00">+</text>
</g>
<!-- 5064723664+&#45;&gt;5064723664 -->
<g id="edge6" class="edge">
<title>5064723664+&#45;&gt;5064723664</title>
<path fill="none" stroke="black" d="M1957.25,-100.5C2007.51,-100.5 2119.07,-100.5 2202.03,-100.5"/>
<polygon fill="black" stroke="black" points="2202.02,-104 2212.02,-100.5 2202.02,-97 2202.02,-104"/>
</g>
<!-- 5064721744 -->
<g id="node17" class="node">
<title>5064721744</title>
<polygon fill="none" stroke="black" points="1374.75,-55.5 1374.75,-91.5 1555.5,-91.5 1555.5,-55.5 1374.75,-55.5"/>
<text text-anchor="middle" x="1384.62" y="-68.7" font-family="Times,serif" font-size="14.00"> </text>
<polyline fill="none" stroke="black" points="1394.5,-56 1394.5,-91.5"/>
<text text-anchor="middle" x="1434.38" y="-68.7" font-family="Times,serif" font-size="14.00">data 1.7627</text>
<polyline fill="none" stroke="black" points="1474.25,-56 1474.25,-91.5"/>
<text text-anchor="middle" x="1514.88" y="-68.7" font-family="Times,serif" font-size="14.00">grad 0.2500</text>
</g>
<!-- 5064723408exp -->
<g id="node22" class="node">
<title>5064723408exp</title>
<ellipse fill="none" stroke="black" cx="1618.5" cy="-73.5" rx="27" ry="18"/>
<text text-anchor="middle" x="1618.5" y="-68.45" font-family="Times,serif" font-size="14.00">exp</text>
</g>
<!-- 5064721744&#45;&gt;5064723408exp -->
<g id="edge28" class="edge">
<title>5064721744&#45;&gt;5064723408exp</title>
<path fill="none" stroke="black" d="M1555.93,-73.5C1564.27,-73.5 1572.37,-73.5 1579.81,-73.5"/>
<polygon fill="black" stroke="black" points="1579.75,-77 1589.75,-73.5 1579.75,-70 1579.75,-77"/>
</g>
<!-- 5064721744*&#45;&gt;5064721744 -->
<g id="edge7" class="edge">
<title>5064721744*&#45;&gt;5064721744</title>
<path fill="none" stroke="black" d="M1339.12,-73.5C1346.26,-73.5 1354.45,-73.5 1363.14,-73.5"/>
<polygon fill="black" stroke="black" points="1362.86,-77 1372.86,-73.5 1362.86,-70 1362.86,-77"/>
</g>
<!-- 5064722256 -->
<g id="node19" class="node">
<title>5064722256</title>
<polygon fill="none" stroke="black" points="668.25,-111.5 668.25,-147.5 939,-147.5 939,-111.5 668.25,-111.5"/>
<text text-anchor="middle" x="720.88" y="-124.7" font-family="Times,serif" font-size="14.00">x1*w1 + x2*w2</text>
<polyline fill="none" stroke="black" points="773.5,-112 773.5,-147.5"/>
<text text-anchor="middle" x="815.62" y="-124.7" font-family="Times,serif" font-size="14.00">data &#45;6.0000</text>
<polyline fill="none" stroke="black" points="857.75,-112 857.75,-147.5"/>
<text text-anchor="middle" x="898.38" y="-124.7" font-family="Times,serif" font-size="14.00">grad 0.5000</text>
</g>
<!-- 5064722256&#45;&gt;5064723536+ -->
<g id="edge11" class="edge">
<title>5064722256&#45;&gt;5064723536+</title>
<path fill="none" stroke="black" d="M934.24,-111.02C944.99,-109.49 955.18,-108.03 964.21,-106.75"/>
<polygon fill="black" stroke="black" points="964.46,-110.25 973.86,-105.37 963.47,-103.32 964.46,-110.25"/>
</g>
<!-- 5064722256+&#45;&gt;5064722256 -->
<g id="edge8" class="edge">
<title>5064722256+&#45;&gt;5064722256</title>
<path fill="none" stroke="black" d="M632.73,-129.5C639.73,-129.5 647.79,-129.5 656.52,-129.5"/>
<polygon fill="black" stroke="black" points="656.39,-133 666.39,-129.5 656.39,-126 656.39,-133"/>
</g>
<!-- 5064723408 -->
<g id="node21" class="node">
<title>5064723408</title>
<polygon fill="none" stroke="black" points="1683.75,-55.5 1683.75,-91.5 1864.5,-91.5 1864.5,-55.5 1683.75,-55.5"/>
<text text-anchor="middle" x="1693.62" y="-68.7" font-family="Times,serif" font-size="14.00"> </text>
<polyline fill="none" stroke="black" points="1703.5,-56 1703.5,-91.5"/>
<text text-anchor="middle" x="1743.38" y="-68.7" font-family="Times,serif" font-size="14.00">data 5.8284</text>
<polyline fill="none" stroke="black" points="1783.25,-56 1783.25,-91.5"/>
<text text-anchor="middle" x="1823.88" y="-68.7" font-family="Times,serif" font-size="14.00">grad 0.0429</text>
</g>
<!-- 5064723408&#45;&gt;5064723664+ -->
<g id="edge20" class="edge">
<title>5064723408&#45;&gt;5064723664+</title>
<path fill="none" stroke="black" d="M1864.93,-89.28C1874.48,-90.96 1883.76,-92.59 1892.14,-94.07"/>
<polygon fill="black" stroke="black" points="1891.39,-97.49 1901.85,-95.77 1892.61,-90.59 1891.39,-97.49"/>
</g>
<!-- 5064722896+ -->
<g id="node28" class="node">
<title>5064722896+</title>
<ellipse fill="none" stroke="black" cx="1929.75" cy="-45.5" rx="27" ry="18"/>
<text text-anchor="middle" x="1929.75" y="-40.45" font-family="Times,serif" font-size="14.00">+</text>
</g>
<!-- 5064723408&#45;&gt;5064722896+ -->
<g id="edge22" class="edge">
<title>5064723408&#45;&gt;5064722896+</title>
<path fill="none" stroke="black" d="M1864.93,-57.13C1874.48,-55.39 1883.76,-53.7 1892.14,-52.17"/>
<polygon fill="black" stroke="black" points="1892.64,-55.64 1901.85,-50.4 1891.39,-48.75 1892.64,-55.64"/>
</g>
<!-- 5064723408exp&#45;&gt;5064723408 -->
<g id="edge9" class="edge">
<title>5064723408exp&#45;&gt;5064723408</title>
<path fill="none" stroke="black" d="M1645.91,-73.5C1653.62,-73.5 1662.54,-73.5 1672.01,-73.5"/>
<polygon fill="black" stroke="black" points="1671.82,-77 1681.82,-73.5 1671.82,-70 1671.82,-77"/>
</g>
<!-- 5064720720 -->
<g id="node23" class="node">
<title>5064720720</title>
<polygon fill="none" stroke="black" points="2.25,-84.5 2.25,-120.5 195.75,-120.5 195.75,-84.5 2.25,-84.5"/>
<text text-anchor="middle" x="18.5" y="-97.7" font-family="Times,serif" font-size="14.00">w2</text>
<polyline fill="none" stroke="black" points="34.75,-85 34.75,-120.5"/>
<text text-anchor="middle" x="74.62" y="-97.7" font-family="Times,serif" font-size="14.00">data 1.0000</text>
<polyline fill="none" stroke="black" points="114.5,-85 114.5,-120.5"/>
<text text-anchor="middle" x="155.12" y="-97.7" font-family="Times,serif" font-size="14.00">grad 0.0000</text>
</g>
<!-- 5064720720&#45;&gt;5064723472* -->
<g id="edge19" class="edge">
<title>5064720720&#45;&gt;5064723472*</title>
<path fill="none" stroke="black" d="M195.84,-102.5C205.14,-102.5 214.15,-102.5 222.32,-102.5"/>
<polygon fill="black" stroke="black" points="222.13,-106 232.13,-102.5 222.13,-99 222.13,-106"/>
</g>
<!-- 5064723856 -->
<g id="node24" class="node">
<title>5064723856</title>
<polygon fill="none" stroke="black" points="1681.5,-0.5 1681.5,-36.5 1866.75,-36.5 1866.75,-0.5 1681.5,-0.5"/>
<text text-anchor="middle" x="1691.38" y="-13.7" font-family="Times,serif" font-size="14.00"> </text>
<polyline fill="none" stroke="black" points="1701.25,-1 1701.25,-36.5"/>
<text text-anchor="middle" x="1741.12" y="-13.7" font-family="Times,serif" font-size="14.00">data 1.0000</text>
<polyline fill="none" stroke="black" points="1781,-1 1781,-36.5"/>
<text text-anchor="middle" x="1823.88" y="-13.7" font-family="Times,serif" font-size="14.00">grad &#45;0.1036</text>
</g>
<!-- 5064723856&#45;&gt;5064722896+ -->
<g id="edge18" class="edge">
<title>5064723856&#45;&gt;5064722896+</title>
<path fill="none" stroke="black" d="M1867.15,-34.67C1875.89,-36.21 1884.36,-37.7 1892.08,-39.05"/>
<polygon fill="black" stroke="black" points="1891.2,-42.45 1901.66,-40.74 1892.41,-35.56 1891.2,-42.45"/>
</g>
<!-- 5064721232 -->
<g id="node25" class="node">
<title>5064721232</title>
<polygon fill="none" stroke="black" points="3.75,-29.5 3.75,-65.5 194.25,-65.5 194.25,-29.5 3.75,-29.5"/>
<text text-anchor="middle" x="18.5" y="-42.7" font-family="Times,serif" font-size="14.00">x2</text>
<polyline fill="none" stroke="black" points="33.25,-30 33.25,-65.5"/>
<text text-anchor="middle" x="73.12" y="-42.7" font-family="Times,serif" font-size="14.00">data 0.0000</text>
<polyline fill="none" stroke="black" points="113,-30 113,-65.5"/>
<text text-anchor="middle" x="153.62" y="-42.7" font-family="Times,serif" font-size="14.00">grad 0.5000</text>
</g>
<!-- 5064721232&#45;&gt;5064723472* -->
<g id="edge17" class="edge">
<title>5064721232&#45;&gt;5064723472*</title>
<path fill="none" stroke="black" d="M168.91,-65.94C178.74,-68.93 188.67,-72.15 198,-75.5 207.96,-79.07 218.58,-83.47 228.18,-87.68"/>
<polygon fill="black" stroke="black" points="226.54,-90.78 237.1,-91.67 229.4,-84.39 226.54,-90.78"/>
</g>
<!-- 5064723792 -->
<g id="node26" class="node">
<title>5064723792</title>
<polygon fill="none" stroke="black" points="1681.5,-110.5 1681.5,-146.5 1866.75,-146.5 1866.75,-110.5 1681.5,-110.5"/>
<text text-anchor="middle" x="1691.38" y="-123.7" font-family="Times,serif" font-size="14.00"> </text>
<polyline fill="none" stroke="black" points="1701.25,-111 1701.25,-146.5"/>
<text text-anchor="middle" x="1743.38" y="-123.7" font-family="Times,serif" font-size="14.00">data &#45;1.0000</text>
<polyline fill="none" stroke="black" points="1785.5,-111 1785.5,-146.5"/>
<text text-anchor="middle" x="1826.12" y="-123.7" font-family="Times,serif" font-size="14.00">grad 0.1464</text>
</g>
<!-- 5064723792&#45;&gt;5064723664+ -->
<g id="edge25" class="edge">
<title>5064723792&#45;&gt;5064723664+</title>
<path fill="none" stroke="black" d="M1867.15,-111.73C1875.89,-110.13 1884.36,-108.59 1892.08,-107.18"/>
<polygon fill="black" stroke="black" points="1892.45,-110.67 1901.66,-105.44 1891.19,-103.79 1892.45,-110.67"/>
</g>
<!-- 5064722896 -->
<g id="node27" class="node">
<title>5064722896</title>
<polygon fill="none" stroke="black" points="1992.75,-27.5 1992.75,-63.5 2178,-63.5 2178,-27.5 1992.75,-27.5"/>
<text text-anchor="middle" x="2002.62" y="-40.7" font-family="Times,serif" font-size="14.00"> </text>
<polyline fill="none" stroke="black" points="2012.5,-28 2012.5,-63.5"/>
<text text-anchor="middle" x="2052.38" y="-40.7" font-family="Times,serif" font-size="14.00">data 6.8284</text>
<polyline fill="none" stroke="black" points="2092.25,-28 2092.25,-63.5"/>
<text text-anchor="middle" x="2135.12" y="-40.7" font-family="Times,serif" font-size="14.00">grad &#45;0.1036</text>
</g>
<!-- 5064722896&#45;&gt;5064724048**&#45;1 -->
<g id="edge21" class="edge">
<title>5064722896&#45;&gt;5064724048**&#45;1</title>
<path fill="none" stroke="black" d="M2178.4,-45.5C2208.64,-45.5 2240.63,-45.5 2264.67,-45.5"/>
<polygon fill="black" stroke="black" points="2264.62,-49 2274.62,-45.5 2264.62,-42 2264.62,-49"/>
</g>
<!-- 5064722896+&#45;&gt;5064722896 -->
<g id="edge10" class="edge">
<title>5064722896+&#45;&gt;5064722896</title>
<path fill="none" stroke="black" d="M1957.16,-45.5C1964.2,-45.5 1972.25,-45.5 1980.8,-45.5"/>
<polygon fill="black" stroke="black" points="1980.79,-49 1990.79,-45.5 1980.79,-42 1980.79,-49"/>
</g>
</g>
</svg>
